<svg width="20" height="20" viewBox="0 0 20 20" fill="none" xmlns="http://www.w3.org/2000/svg">
<path d="M10 3.5C13.5899 3.5 16.5 6.41015 16.5 10C16.5 13.5899 13.5899 16.5 10 16.5C6.41015 16.5 3.5 13.5899 3.5 10C3.5 6.41015 6.41015 3.5 10 3.5ZM8.83649 4.62331L10.0003 5.39907L11.1637 4.62335C10.7886 4.54255 10.3993 4.5 10 4.5C9.6008 4.5 9.21154 4.54253 8.83649 4.62331ZM7.64269 5.02936C6.90955 5.37767 6.2657 5.88339 5.75481 6.50285L6.40222 8.60703L7.40767 8.94218L9.50039 7.35187V6.26762L7.64269 5.02936ZM5.04757 7.60474C4.77701 8.16311 4.5981 8.77416 4.53039 9.41834L5.41506 8.79912L5.04757 7.60474ZM4.53625 10.6349C4.63571 11.5003 4.93606 12.3046 5.38947 13H7.29289L7.92794 12.365L7.10472 9.89529L6.08059 9.55391L4.53625 10.6349ZM6.22506 14C6.62927 14.3816 7.09129 14.7026 7.59661 14.9485L7.17506 14H6.22506ZM8.88587 15.3871C9.24567 15.4611 9.61829 15.5 10 15.5C10.3817 15.5 10.7543 15.4611 11.1141 15.3871L11.9036 13.6107L11.2929 13H8.70711L8.09637 13.6107L8.88587 15.3871ZM12.4034 14.9485C12.9087 14.7026 13.3707 14.3816 13.7749 14H12.8249L12.4034 14.9485ZM14.6105 13C15.0498 12.3262 15.3455 11.5502 15.4539 10.7154L13.9096 9.55719L12.8953 9.89528L12.0721 12.365L12.7071 13H14.6105ZM15.4759 9.48194C15.413 8.80856 15.2287 8.17044 14.9451 7.58969L14.5792 8.8094L15.4759 9.48194ZM14.2319 6.48684C13.7232 5.87468 13.0841 5.37468 12.3573 5.02938L10.5004 6.26757V7.35192L12.5924 8.94216L13.5957 8.60773L14.2319 6.48684ZM8.08755 9.6815L8.86038 12H11.1396L11.9125 9.68145L10.0003 8.22793L8.08755 9.6815Z" fill="#424242"/>
</svg>
