<svg width="20" height="20" viewBox="0 0 20 20" fill="none" xmlns="http://www.w3.org/2000/svg">
<path d="M10.0006 5.87504C10.4608 5.87504 10.8339 5.50194 10.8339 5.04171C10.8339 4.58147 10.4608 4.20837 10.0006 4.20837C9.54033 4.20837 9.16724 4.58147 9.16724 5.04171C9.16724 5.50194 9.54033 5.87504 10.0006 5.87504ZM16.0002 13.3406V8H16.0932C16.9865 8 17.3522 6.85258 16.6236 6.33571L10.772 2.18429C10.31 1.85646 9.69115 1.85646 9.22906 2.18428L3.37727 6.3357C2.64871 6.85256 3.01439 8 3.90767 8H4.00024V13.3406C3.39886 13.7256 3.00024 14.3996 3.00024 15.1667V16.5C3.00024 16.7761 3.2241 17 3.50024 17H16.5002C16.7764 17 17.0002 16.7761 17.0002 16.5V15.1667C17.0002 14.3996 16.6016 13.7256 16.0002 13.3406ZM9.80767 2.99988C9.92319 2.91793 10.0779 2.91793 10.1934 2.99988L15.8317 7H12.5023L12.5002 7L12.4981 7H4.16915L9.80767 2.99988ZM15.0002 8V13.0063C14.9452 13.0021 14.8897 13 14.8336 13H13.0002L13.0002 8H15.0002ZM5.00024 13.0063V8H7.00024L7.00024 13H5.16691C5.11083 13 5.05525 13.0021 5.00024 13.0063ZM5.16691 14H14.8336C15.4779 14 16.0002 14.5223 16.0002 15.1667V16H4.00024V15.1667C4.00024 14.5223 4.52258 14 5.16691 14ZM9.50024 13H8.00024L8.00024 8H9.50024L9.50024 13ZM10.5002 13L10.5002 8H12.0002L12.0002 13H10.5002Z" fill="#424242"/>
</svg>
