<svg width="152" height="28" viewBox="0 0 152 28" fill="none" xmlns="http://www.w3.org/2000/svg">
<path d="M5.21911 22L0.432884 5.27273H4.29616L7.06499 16.8952H7.20384L10.2585 5.27273H13.5664L16.6129 16.9197H16.7599L19.5288 5.27273H23.392L18.6058 22H15.1591L11.9737 11.0636H11.843L8.66584 22H5.21911ZM28.8992 22.245C27.6087 22.245 26.4979 21.9837 25.5668 21.4609C24.6412 20.9328 23.9279 20.1868 23.4269 19.223C22.926 18.2538 22.6755 17.1076 22.6755 15.7844C22.6755 14.494 22.926 13.3614 23.4269 12.3867C23.9279 11.4121 24.633 10.6525 25.5423 10.108C26.4571 9.56345 27.5298 9.29119 28.7604 9.29119C29.588 9.29119 30.3585 9.4246 31.0718 9.69141C31.7906 9.95277 32.4167 10.3475 32.9504 10.8757C33.4894 11.4039 33.9087 12.0682 34.2082 12.8686C34.5077 13.6636 34.6574 14.5947 34.6574 15.6619V16.6175H24.064V14.4613H31.3822C31.3822 13.9603 31.2733 13.5166 31.0555 13.13C30.8377 12.7434 30.5355 12.4412 30.1489 12.2234C29.7677 12.0001 29.3239 11.8885 28.8175 11.8885C28.2894 11.8885 27.8211 12.011 27.4127 12.256C27.0098 12.4956 26.694 12.8196 26.4653 13.228C26.2366 13.6309 26.1195 14.0801 26.1141 14.5756V16.6257C26.1141 17.2464 26.2284 17.7828 26.4571 18.2347C26.6912 18.6867 27.0207 19.0352 27.4454 19.2802C27.8701 19.5252 28.3738 19.6477 28.9564 19.6477C29.343 19.6477 29.6969 19.5933 30.0182 19.4844C30.3394 19.3755 30.6144 19.2121 30.8431 18.9943C31.0718 18.7765 31.246 18.5097 31.3658 18.1939L34.5839 18.4062C34.4205 19.1795 34.0857 19.8546 33.5793 20.4318C33.0783 21.0036 32.4304 21.45 31.6354 21.7713C30.8458 22.0871 29.9338 22.245 28.8992 22.245ZM36.3033 22V5.27273H39.7827V11.5618H39.8889C40.0414 11.2242 40.2619 10.8812 40.5505 10.5327C40.8445 10.1787 41.2257 9.88471 41.694 9.65057C42.1677 9.41098 42.7557 9.29119 43.4582 9.29119C44.3729 9.29119 45.2169 9.53078 45.9901 10.0099C46.7633 10.4837 47.3813 11.1997 47.8442 12.158C48.307 13.1109 48.5384 14.3061 48.5384 15.7436C48.5384 17.143 48.3124 18.3246 47.8605 19.2884C47.414 20.2467 46.8042 20.9736 46.031 21.4691C45.2632 21.9592 44.4029 22.2042 43.45 22.2042C42.7748 22.2042 42.2003 22.0926 41.7266 21.8693C41.2583 21.6461 40.8745 21.3656 40.575 21.0281C40.2755 20.685 40.0468 20.3393 39.8889 19.9908H39.7337V22H36.3033ZM39.7092 15.7273C39.7092 16.4732 39.8127 17.1239 40.0196 17.6793C40.2265 18.2347 40.526 18.6676 40.918 18.978C41.3101 19.2829 41.7865 19.4354 42.3474 19.4354C42.9136 19.4354 43.3928 19.2802 43.7849 18.9698C44.1769 18.654 44.4737 18.2184 44.6751 17.663C44.882 17.1022 44.9855 16.4569 44.9855 15.7273C44.9855 15.0031 44.8848 14.366 44.6833 13.8161C44.4818 13.2661 44.1851 12.8359 43.793 12.5256C43.401 12.2152 42.9191 12.06 42.3474 12.06C41.7811 12.06 41.3019 12.2098 40.9099 12.5092C40.5233 12.8087 40.2265 13.2334 40.0196 13.7834C39.8127 14.3333 39.7092 14.9813 39.7092 15.7273ZM61.327 10.6797C61.2127 10.2822 61.052 9.93099 60.8451 9.62606C60.6382 9.3157 60.385 9.05433 60.0855 8.84197C59.7915 8.62417 59.4539 8.4581 59.0728 8.34375C58.697 8.2294 58.2805 8.17223 57.8231 8.17223C56.9682 8.17223 56.2168 8.38459 55.5688 8.8093C54.9263 9.23402 54.4254 9.85204 54.066 10.6634C53.7066 11.4692 53.5269 12.4548 53.5269 13.62C53.5269 14.7853 53.7039 15.7763 54.0578 16.593C54.4118 17.4098 54.9127 18.0333 55.5607 18.4634C56.2086 18.8881 56.9737 19.1005 57.8558 19.1005C58.6562 19.1005 59.3396 18.9589 59.9059 18.6758C60.4776 18.3872 60.9132 17.9815 61.2127 17.4588C61.5176 16.9361 61.6701 16.3181 61.6701 15.6048L62.3888 15.7109H58.0763V13.0483H65.076V15.1555C65.076 16.6257 64.7656 17.889 64.1448 18.9453C63.5241 19.9962 62.6692 20.8075 61.5802 21.3793C60.4912 21.9455 59.2443 22.2287 57.8394 22.2287C56.2713 22.2287 54.8937 21.8829 53.7066 21.1914C52.5196 20.4944 51.5939 19.5062 50.9296 18.2266C50.2708 16.9415 49.9414 15.4169 49.9414 13.6527C49.9414 12.2969 50.1374 11.0881 50.5294 10.0263C50.9269 8.95904 51.4823 8.05516 52.1956 7.31463C52.9089 6.5741 53.7393 6.01053 54.6867 5.62393C55.6342 5.23733 56.6606 5.04403 57.7659 5.04403C58.7134 5.04403 59.5955 5.18288 60.4122 5.46058C61.229 5.73284 61.9532 6.11944 62.5848 6.62038C63.2219 7.12133 63.7419 7.71757 64.1448 8.40909C64.5478 9.09517 64.8064 9.85204 64.9208 10.6797H61.327ZM70.5545 22.2369C69.7541 22.2369 69.0408 22.098 68.4146 21.8203C67.7884 21.5372 67.2929 21.1206 66.9281 20.5707C66.5687 20.0153 66.3891 19.3237 66.3891 18.4961C66.3891 17.7991 66.517 17.2138 66.7729 16.7401C67.0289 16.2663 67.3773 15.8852 67.8184 15.5966C68.2594 15.308 68.7604 15.0902 69.3212 14.9432C69.8875 14.7962 70.481 14.6927 71.1018 14.6328C71.8314 14.5566 72.4195 14.4858 72.866 14.4205C73.3125 14.3497 73.6365 14.2462 73.8379 14.1101C74.0394 13.974 74.1401 13.7725 74.1401 13.5057V13.4567C74.1401 12.9394 73.9768 12.5392 73.6501 12.256C73.3288 11.9729 72.8714 11.8313 72.2779 11.8313C71.6517 11.8313 71.1535 11.9702 70.7832 12.2479C70.413 12.5201 70.1679 12.8632 70.0481 13.277L66.8301 13.0156C66.9935 12.2533 67.3147 11.5945 67.7939 11.0391C68.2731 10.4782 68.8911 10.0481 69.6479 9.74858C70.4102 9.44366 71.2923 9.29119 72.2942 9.29119C72.9912 9.29119 73.6582 9.37287 74.2953 9.53622C74.9378 9.69957 75.5068 9.95277 76.0023 10.2958C76.5033 10.6388 76.8981 11.0799 77.1866 11.619C77.4752 12.1526 77.6195 12.7924 77.6195 13.5384V22H74.3198V20.2603H74.2218C74.0203 20.6523 73.7508 20.9981 73.4132 21.2976C73.0756 21.5916 72.67 21.823 72.1962 21.9918C71.7225 22.1552 71.1753 22.2369 70.5545 22.2369ZM71.551 19.8356C72.0628 19.8356 72.5148 19.7348 72.9068 19.5334C73.2989 19.3265 73.6065 19.0488 73.8298 18.7003C74.053 18.3518 74.1646 17.957 74.1646 17.516V16.1847C74.0557 16.2554 73.906 16.3208 73.7154 16.3807C73.5303 16.4351 73.3206 16.4869 73.0865 16.5359C72.8524 16.5794 72.6182 16.6203 72.3841 16.6584C72.1499 16.6911 71.9376 16.721 71.747 16.7482C71.3386 16.8081 70.982 16.9034 70.6771 17.0341C70.3721 17.1648 70.1353 17.3417 69.9665 17.565C69.7977 17.7828 69.7133 18.055 69.7133 18.3817C69.7133 18.8555 69.8848 19.2176 70.2278 19.468C70.5763 19.7131 71.0174 19.8356 71.551 19.8356ZM79.6289 22V9.45455H82.945V11.668H83.092C83.3534 10.9329 83.789 10.353 84.3988 9.92827C85.0087 9.50355 85.7383 9.29119 86.5877 9.29119C87.4481 9.29119 88.1804 9.50627 88.7848 9.93643C89.3892 10.3611 89.7922 10.9383 89.9936 11.668H90.1243C90.3802 10.9492 90.8431 10.3748 91.5128 9.9446C92.188 9.509 92.9857 9.29119 93.9059 9.29119C95.0766 9.29119 96.0268 9.66418 96.7564 10.4102C97.4915 11.1507 97.859 12.2016 97.859 13.5629V22H94.3878V14.2489C94.3878 13.552 94.2027 13.0292 93.8324 12.6808C93.4621 12.3323 92.9993 12.158 92.4439 12.158C91.8123 12.158 91.3195 12.3595 90.9656 12.7624C90.6116 13.1599 90.4347 13.6854 90.4347 14.3388V22H87.0615V14.1754C87.0615 13.5601 86.8845 13.0701 86.5306 12.7053C86.1821 12.3404 85.722 12.158 85.1502 12.158C84.7636 12.158 84.4151 12.256 84.1048 12.4521C83.7999 12.6426 83.5575 12.9122 83.3779 13.2607C83.1982 13.6037 83.1083 14.0066 83.1083 14.4695V22H79.6289ZM105.635 22.245C104.344 22.245 103.233 21.9837 102.302 21.4609C101.377 20.9328 100.663 20.1868 100.162 19.223C99.6615 18.2538 99.411 17.1076 99.411 15.7844C99.411 14.494 99.6615 13.3614 100.162 12.3867C100.663 11.4121 101.369 10.6525 102.278 10.108C103.193 9.56345 104.265 9.29119 105.496 9.29119C106.324 9.29119 107.094 9.4246 107.807 9.69141C108.526 9.95277 109.152 10.3475 109.686 10.8757C110.225 11.4039 110.644 12.0682 110.944 12.8686C111.243 13.6636 111.393 14.5947 111.393 15.6619V16.6175H100.8V14.4613H108.118C108.118 13.9603 108.009 13.5166 107.791 13.13C107.573 12.7434 107.271 12.4412 106.884 12.2234C106.503 12.0001 106.059 11.8885 105.553 11.8885C105.025 11.8885 104.557 12.011 104.148 12.256C103.745 12.4956 103.43 12.8196 103.201 13.228C102.972 13.6309 102.855 14.0801 102.85 14.5756V16.6257C102.85 17.2464 102.964 17.7828 103.193 18.2347C103.427 18.6867 103.756 19.0352 104.181 19.2802C104.606 19.5252 105.109 19.6477 105.692 19.6477C106.079 19.6477 106.432 19.5933 106.754 19.4844C107.075 19.3755 107.35 19.2121 107.579 18.9943C107.807 18.7765 107.982 18.5097 108.101 18.1939L111.319 18.4062C111.156 19.1795 110.821 19.8546 110.315 20.4318C109.814 21.0036 109.166 21.45 108.371 21.7713C107.581 22.0871 106.669 22.245 105.635 22.245Z" fill="white"/>
<rect x="117.5" y="6.5" width="34" height="15" rx="3.5" stroke="white"/>
<path d="M120.55 18V10.7273H122.308V16.5724H125.334V18H120.55ZM132.825 14.3636C132.825 15.1638 132.671 15.8421 132.363 16.3984C132.056 16.9548 131.639 17.3774 131.113 17.6662C130.59 17.955 130.003 18.0994 129.352 18.0994C128.699 18.0994 128.11 17.9538 127.587 17.6626C127.064 17.3714 126.648 16.9489 126.341 16.3949C126.035 15.8385 125.882 15.1615 125.882 14.3636C125.882 13.5634 126.035 12.8852 126.341 12.3288C126.648 11.7725 127.064 11.3499 127.587 11.0611C128.11 10.7723 128.699 10.6278 129.352 10.6278C130.003 10.6278 130.59 10.7723 131.113 11.0611C131.639 11.3499 132.056 11.7725 132.363 12.3288C132.671 12.8852 132.825 13.5634 132.825 14.3636ZM131.028 14.3636C131.028 13.8902 130.961 13.4901 130.826 13.1634C130.693 12.8366 130.501 12.5893 130.25 12.4212C130.002 12.2531 129.702 12.169 129.352 12.169C129.004 12.169 128.704 12.2531 128.453 12.4212C128.203 12.5893 128.01 12.8366 127.875 13.1634C127.742 13.4901 127.676 13.8902 127.676 14.3636C127.676 14.8371 127.742 15.2372 127.875 15.5639C128.01 15.8906 128.203 16.138 128.453 16.3061C128.704 16.4742 129.004 16.5582 129.352 16.5582C129.702 16.5582 130.002 16.4742 130.25 16.3061C130.501 16.138 130.693 15.8906 130.826 15.5639C130.961 15.2372 131.028 14.8371 131.028 14.3636ZM138.624 13.103C138.584 12.9538 138.525 12.8224 138.446 12.7088C138.368 12.5928 138.272 12.4946 138.159 12.4141C138.045 12.3336 137.915 12.2732 137.768 12.233C137.621 12.1903 137.46 12.169 137.285 12.169C136.932 12.169 136.627 12.2543 136.369 12.4247C136.113 12.5952 135.916 12.8437 135.776 13.1705C135.636 13.4948 135.566 13.889 135.566 14.353C135.566 14.8194 135.634 15.2171 135.769 15.5462C135.904 15.8752 136.099 16.1262 136.355 16.299C136.61 16.4718 136.921 16.5582 137.285 16.5582C137.607 16.5582 137.879 16.5062 138.102 16.402C138.327 16.2955 138.497 16.1451 138.613 15.951C138.729 15.7569 138.787 15.5284 138.787 15.2656L139.114 15.3047H137.346V14.0227H140.481V14.9851C140.481 15.6361 140.343 16.1937 140.066 16.6577C139.791 17.1217 139.412 17.478 138.929 17.7266C138.449 17.9751 137.896 18.0994 137.271 18.0994C136.577 18.0994 135.968 17.9491 135.442 17.6484C134.917 17.3478 134.507 16.9193 134.213 16.3629C133.92 15.8042 133.773 15.1413 133.773 14.3743C133.773 13.7777 133.862 13.2486 134.039 12.7869C134.217 12.3229 134.464 11.9299 134.782 11.608C135.101 11.286 135.471 11.0421 135.89 10.8764C136.311 10.7107 136.764 10.6278 137.25 10.6278C137.671 10.6278 138.063 10.6882 138.425 10.8089C138.79 10.9297 139.112 11.1001 139.391 11.3203C139.673 11.5405 139.901 11.8021 140.076 12.1051C140.252 12.4081 140.36 12.7408 140.403 13.103H138.624ZM148.382 14.3636C148.382 15.1638 148.228 15.8421 147.92 16.3984C147.612 16.9548 147.195 17.3774 146.67 17.6662C146.147 17.955 145.56 18.0994 144.909 18.0994C144.255 18.0994 143.667 17.9538 143.144 17.6626C142.62 17.3714 142.205 16.9489 141.897 16.3949C141.592 15.8385 141.439 15.1615 141.439 14.3636C141.439 13.5634 141.592 12.8852 141.897 12.3288C142.205 11.7725 142.62 11.3499 143.144 11.0611C143.667 10.7723 144.255 10.6278 144.909 10.6278C145.56 10.6278 146.147 10.7723 146.67 11.0611C147.195 11.3499 147.612 11.7725 147.92 12.3288C148.228 12.8852 148.382 13.5634 148.382 14.3636ZM146.585 14.3636C146.585 13.8902 146.517 13.4901 146.382 13.1634C146.25 12.8366 146.058 12.5893 145.807 12.4212C145.558 12.2531 145.259 12.169 144.909 12.169C144.561 12.169 144.261 12.2531 144.01 12.4212C143.759 12.5893 143.566 12.8366 143.431 13.1634C143.299 13.4901 143.232 13.8902 143.232 14.3636C143.232 14.8371 143.299 15.2372 143.431 15.5639C143.566 15.8906 143.759 16.138 144.01 16.3061C144.261 16.4742 144.561 16.5582 144.909 16.5582C145.259 16.5582 145.558 16.4742 145.807 16.3061C146.058 16.138 146.25 15.8906 146.382 15.5639C146.517 15.2372 146.585 14.8371 146.585 14.3636Z" fill="white"/>
</svg>
