<svg width="300" height="58" viewBox="0 0 300 58" fill="none" xmlns="http://www.w3.org/2000/svg">
<path d="M10.892 46L0.903409 11.0909H8.96591L14.7443 35.3466H15.0341L21.4091 11.0909H28.3125L34.6705 35.3977H34.9773L40.7557 11.0909H48.8182L38.8295 46H31.6364L24.9886 23.1761H24.7159L18.0852 46H10.892ZM61.7514 46.5114C59.0582 46.5114 56.7401 45.9659 54.7969 44.875C52.8651 43.7727 51.3764 42.2159 50.331 40.2045C49.2855 38.1818 48.7628 35.7898 48.7628 33.0284C48.7628 30.3352 49.2855 27.9716 50.331 25.9375C51.3764 23.9034 52.848 22.3182 54.7457 21.1818C56.6548 20.0455 58.8935 19.4773 61.4616 19.4773C63.1889 19.4773 64.7969 19.7557 66.2855 20.3125C67.7855 20.858 69.0923 21.6818 70.206 22.7841C71.331 23.8864 72.206 25.2727 72.831 26.9432C73.456 28.6023 73.7685 30.5455 73.7685 32.7727V34.767H51.6605V30.267H66.9332C66.9332 29.2216 66.706 28.2955 66.2514 27.4886C65.7969 26.6818 65.1662 26.0511 64.3594 25.5966C63.5639 25.1307 62.6378 24.8977 61.581 24.8977C60.4787 24.8977 59.5014 25.1534 58.6491 25.6648C57.8082 26.1648 57.1491 26.8409 56.6719 27.6932C56.1946 28.5341 55.9503 29.4716 55.9389 30.5057V34.7841C55.9389 36.0795 56.1776 37.1989 56.6548 38.142C57.1435 39.0852 57.831 39.8125 58.7173 40.3239C59.6037 40.8352 60.6548 41.0909 61.8707 41.0909C62.6776 41.0909 63.4162 40.9773 64.0866 40.75C64.7571 40.5227 65.331 40.1818 65.8082 39.7273C66.2855 39.2727 66.6491 38.7159 66.8991 38.0568L73.6151 38.5C73.2741 40.1136 72.5753 41.5227 71.5185 42.7273C70.473 43.9205 69.1207 44.8523 67.4616 45.5227C65.8139 46.1818 63.9105 46.5114 61.7514 46.5114ZM78.6435 46V11.0909H85.9048V24.2159H86.1264C86.4446 23.5114 86.9048 22.7955 87.5071 22.0682C88.1207 21.3295 88.9162 20.7159 89.8935 20.2273C90.8821 19.7273 92.1094 19.4773 93.5753 19.4773C95.4844 19.4773 97.2457 19.9773 98.8594 20.9773C100.473 21.9659 101.763 23.4602 102.729 25.4602C103.695 27.4489 104.178 29.9432 104.178 32.9432C104.178 35.8636 103.706 38.3295 102.763 40.3409C101.831 42.3409 100.558 43.858 98.9446 44.892C97.3423 45.9148 95.5469 46.4261 93.5582 46.4261C92.1491 46.4261 90.9503 46.1932 89.9616 45.7273C88.9844 45.2614 88.1832 44.6761 87.5582 43.9716C86.9332 43.2557 86.456 42.5341 86.1264 41.8068H85.8026V46H78.6435ZM85.7514 32.9091C85.7514 34.4659 85.9673 35.8239 86.3991 36.983C86.831 38.142 87.456 39.0455 88.2741 39.6932C89.0923 40.3295 90.0866 40.6477 91.2571 40.6477C92.4389 40.6477 93.4389 40.3239 94.2571 39.6761C95.0753 39.017 95.6946 38.108 96.1151 36.9489C96.5469 35.7784 96.7628 34.4318 96.7628 32.9091C96.7628 31.3977 96.5526 30.0682 96.1321 28.9205C95.7116 27.7727 95.0923 26.875 94.2741 26.2273C93.456 25.5795 92.4503 25.2557 91.2571 25.2557C90.0753 25.2557 89.0753 25.5682 88.2571 26.1932C87.4503 26.8182 86.831 27.7045 86.3991 28.8523C85.9673 30 85.7514 31.3523 85.7514 32.9091ZM132.307 22.375C132.068 21.5455 131.733 20.8125 131.301 20.1761C130.869 19.5284 130.341 18.983 129.716 18.5398C129.102 18.0852 128.398 17.7386 127.602 17.5C126.818 17.2614 125.949 17.142 124.994 17.142C123.21 17.142 121.642 17.5852 120.29 18.4716C118.949 19.358 117.903 20.6477 117.153 22.3409C116.403 24.0227 116.028 26.0795 116.028 28.5114C116.028 30.9432 116.398 33.0114 117.136 34.7159C117.875 36.4205 118.92 37.7216 120.273 38.6193C121.625 39.5057 123.222 39.9489 125.062 39.9489C126.733 39.9489 128.159 39.6534 129.341 39.0625C130.534 38.4602 131.443 37.6136 132.068 36.5227C132.705 35.4318 133.023 34.142 133.023 32.6534L134.523 32.875H125.523V27.3182H140.131V31.7159C140.131 34.7841 139.483 37.4205 138.188 39.625C136.892 41.8182 135.108 43.5114 132.835 44.7045C130.562 45.8864 127.96 46.4773 125.028 46.4773C121.756 46.4773 118.881 45.7557 116.403 44.3125C113.926 42.858 111.994 40.7955 110.608 38.125C109.233 35.4432 108.545 32.2614 108.545 28.5795C108.545 25.75 108.955 23.2273 109.773 21.0114C110.602 18.7841 111.761 16.8977 113.25 15.3523C114.739 13.8068 116.472 12.6307 118.449 11.8239C120.426 11.017 122.568 10.6136 124.875 10.6136C126.852 10.6136 128.693 10.9034 130.398 11.483C132.102 12.0511 133.614 12.858 134.932 13.9034C136.261 14.9489 137.347 16.1932 138.188 17.6364C139.028 19.0682 139.568 20.6477 139.807 22.375H132.307ZM153.004 46.4943C151.334 46.4943 149.845 46.2045 148.538 45.625C147.232 45.0341 146.197 44.1648 145.436 43.017C144.686 41.858 144.311 40.4148 144.311 38.6875C144.311 37.233 144.578 36.0114 145.112 35.0227C145.646 34.0341 146.374 33.2386 147.294 32.6364C148.214 32.0341 149.26 31.5795 150.43 31.2727C151.612 30.9659 152.851 30.75 154.146 30.625C155.669 30.4659 156.896 30.3182 157.828 30.1818C158.76 30.0341 159.436 29.8182 159.857 29.5341C160.277 29.25 160.487 28.8295 160.487 28.2727V28.1705C160.487 27.0909 160.146 26.2557 159.464 25.6648C158.794 25.0739 157.839 24.7784 156.601 24.7784C155.294 24.7784 154.254 25.0682 153.482 25.6477C152.709 26.2159 152.197 26.9318 151.947 27.7955L145.232 27.25C145.572 25.6591 146.243 24.2841 147.243 23.125C148.243 21.9545 149.533 21.0568 151.112 20.4318C152.703 19.7955 154.544 19.4773 156.635 19.4773C158.089 19.4773 159.482 19.6477 160.811 19.9886C162.152 20.3295 163.339 20.858 164.374 21.5739C165.419 22.2898 166.243 23.2102 166.845 24.3352C167.447 25.4489 167.749 26.7841 167.749 28.3409V46H160.862V42.3693H160.658C160.237 43.1875 159.675 43.9091 158.97 44.5341C158.266 45.1477 157.419 45.6307 156.43 45.983C155.442 46.3239 154.3 46.4943 153.004 46.4943ZM155.084 41.483C156.152 41.483 157.095 41.2727 157.913 40.8523C158.732 40.4205 159.374 39.8409 159.839 39.1136C160.305 38.3864 160.538 37.5625 160.538 36.642V33.8636C160.311 34.0114 159.999 34.1477 159.601 34.2727C159.214 34.3864 158.777 34.4943 158.288 34.5966C157.8 34.6875 157.311 34.7727 156.822 34.8523C156.334 34.9205 155.891 34.983 155.493 35.0398C154.641 35.1648 153.896 35.3636 153.26 35.6364C152.624 35.9091 152.129 36.2784 151.777 36.7443C151.425 37.1989 151.249 37.767 151.249 38.4489C151.249 39.4375 151.607 40.1932 152.322 40.7159C153.05 41.2273 153.97 41.483 155.084 41.483ZM173.382 46V19.8182H180.303V24.4375H180.609C181.155 22.9034 182.064 21.6932 183.337 20.8068C184.609 19.9205 186.132 19.4773 187.905 19.4773C189.7 19.4773 191.229 19.9261 192.49 20.8239C193.751 21.7102 194.592 22.9148 195.013 24.4375H195.286C195.82 22.9375 196.786 21.7386 198.183 20.8409C199.592 19.9318 201.257 19.4773 203.178 19.4773C205.621 19.4773 207.604 20.2557 209.126 21.8125C210.661 23.358 211.428 25.5511 211.428 28.392V46H204.183V29.8239C204.183 28.3693 203.797 27.2784 203.024 26.5511C202.251 25.8239 201.286 25.4602 200.126 25.4602C198.808 25.4602 197.78 25.8807 197.041 26.7216C196.303 27.5511 195.933 28.6477 195.933 30.0114V46H188.893V29.6705C188.893 28.3864 188.524 27.3636 187.786 26.6023C187.058 25.8409 186.098 25.4602 184.905 25.4602C184.098 25.4602 183.371 25.6648 182.723 26.0739C182.087 26.4716 181.581 27.0341 181.206 27.7614C180.831 28.4773 180.643 29.3182 180.643 30.2841V46H173.382ZM229.095 46.5114C226.402 46.5114 224.084 45.9659 222.141 44.875C220.209 43.7727 218.72 42.2159 217.675 40.2045C216.629 38.1818 216.107 35.7898 216.107 33.0284C216.107 30.3352 216.629 27.9716 217.675 25.9375C218.72 23.9034 220.192 22.3182 222.089 21.1818C223.999 20.0455 226.237 19.4773 228.805 19.4773C230.533 19.4773 232.141 19.7557 233.629 20.3125C235.129 20.858 236.436 21.6818 237.55 22.7841C238.675 23.8864 239.55 25.2727 240.175 26.9432C240.8 28.6023 241.112 30.5455 241.112 32.7727V34.767H219.004V30.267H234.277C234.277 29.2216 234.05 28.2955 233.595 27.4886C233.141 26.6818 232.51 26.0511 231.703 25.5966C230.908 25.1307 229.982 24.8977 228.925 24.8977C227.822 24.8977 226.845 25.1534 225.993 25.6648C225.152 26.1648 224.493 26.8409 224.016 27.6932C223.538 28.5341 223.294 29.4716 223.283 30.5057V34.7841C223.283 36.0795 223.521 37.1989 223.999 38.142C224.487 39.0852 225.175 39.8125 226.061 40.3239C226.947 40.8352 227.999 41.0909 229.214 41.0909C230.021 41.0909 230.76 40.9773 231.43 40.75C232.101 40.5227 232.675 40.1818 233.152 39.7273C233.629 39.2727 233.993 38.7159 234.243 38.0568L240.959 38.5C240.618 40.1136 239.919 41.5227 238.862 42.7273C237.817 43.9205 236.464 44.8523 234.805 45.5227C233.158 46.1818 231.254 46.5114 229.095 46.5114Z" fill="white"/>
<rect x="247.5" y="18" width="52" height="22" rx="3.5" stroke="white"/>
<path d="M250.881 34.5V22.8636H253.693V32.2159H258.534V34.5H250.881ZM270.52 28.6818C270.52 29.9621 270.274 31.0473 269.781 31.9375C269.289 32.8277 268.622 33.5038 267.781 33.9659C266.944 34.428 266.005 34.6591 264.963 34.6591C263.918 34.6591 262.976 34.4261 262.139 33.9602C261.302 33.4943 260.637 32.8182 260.145 31.9318C259.656 31.0417 259.412 29.9583 259.412 28.6818C259.412 27.4015 259.656 26.3163 260.145 25.4261C260.637 24.536 261.302 23.8598 262.139 23.3977C262.976 22.9356 263.918 22.7045 264.963 22.7045C266.005 22.7045 266.944 22.9356 267.781 23.3977C268.622 23.8598 269.289 24.536 269.781 25.4261C270.274 26.3163 270.52 27.4015 270.52 28.6818ZM267.645 28.6818C267.645 27.9242 267.537 27.2841 267.321 26.7614C267.109 26.2386 266.802 25.8428 266.401 25.5739C266.003 25.3049 265.524 25.1705 264.963 25.1705C264.406 25.1705 263.927 25.3049 263.526 25.5739C263.124 25.8428 262.815 26.2386 262.599 26.7614C262.387 27.2841 262.281 27.9242 262.281 28.6818C262.281 29.4394 262.387 30.0795 262.599 30.6023C262.815 31.125 263.124 31.5208 263.526 31.7898C263.927 32.0587 264.406 32.1932 264.963 32.1932C265.524 32.1932 266.003 32.0587 266.401 31.7898C266.802 31.5208 267.109 31.125 267.321 30.6023C267.537 30.0795 267.645 29.4394 267.645 28.6818ZM279.798 26.6648C279.734 26.4261 279.639 26.2159 279.514 26.0341C279.389 25.8485 279.236 25.6913 279.054 25.5625C278.872 25.4337 278.664 25.3371 278.429 25.2727C278.194 25.2045 277.937 25.1705 277.656 25.1705C277.092 25.1705 276.603 25.3068 276.19 25.5795C275.781 25.8523 275.465 26.25 275.241 26.7727C275.018 27.2917 274.906 27.9223 274.906 28.6648C274.906 29.411 275.014 30.0473 275.23 30.5739C275.446 31.1004 275.759 31.5019 276.168 31.7784C276.577 32.0549 277.073 32.1932 277.656 32.1932C278.171 32.1932 278.607 32.1098 278.963 31.9432C279.323 31.7727 279.596 31.5322 279.781 31.2216C279.967 30.911 280.06 30.5455 280.06 30.125L280.582 30.1875H277.753V28.1364H282.77V29.6761C282.77 30.7178 282.548 31.6098 282.105 32.3523C281.666 33.0947 281.06 33.6648 280.287 34.0625C279.518 34.4602 278.634 34.6591 277.634 34.6591C276.524 34.6591 275.548 34.4186 274.707 33.9375C273.866 33.4564 273.211 32.7708 272.741 31.8807C272.272 30.9867 272.037 29.9261 272.037 28.6989C272.037 27.7443 272.179 26.8977 272.463 26.1591C272.747 25.4167 273.143 24.7879 273.651 24.2727C274.162 23.7576 274.753 23.3674 275.423 23.1023C276.098 22.8371 276.823 22.7045 277.599 22.7045C278.274 22.7045 278.901 22.8011 279.48 22.9943C280.063 23.1875 280.579 23.4602 281.026 23.8125C281.476 24.1648 281.842 24.5833 282.122 25.0682C282.402 25.553 282.577 26.0852 282.645 26.6648H279.798ZM295.411 28.6818C295.411 29.9621 295.164 31.0473 294.672 31.9375C294.179 32.8277 293.513 33.5038 292.672 33.9659C291.835 34.428 290.895 34.6591 289.854 34.6591C288.808 34.6591 287.867 34.4261 287.03 33.9602C286.193 33.4943 285.528 32.8182 285.036 31.9318C284.547 31.0417 284.303 29.9583 284.303 28.6818C284.303 27.4015 284.547 26.3163 285.036 25.4261C285.528 24.536 286.193 23.8598 287.03 23.3977C287.867 22.9356 288.808 22.7045 289.854 22.7045C290.895 22.7045 291.835 22.9356 292.672 23.3977C293.513 23.8598 294.179 24.536 294.672 25.4261C295.164 26.3163 295.411 27.4015 295.411 28.6818ZM292.536 28.6818C292.536 27.9242 292.428 27.2841 292.212 26.7614C292 26.2386 291.693 25.8428 291.291 25.5739C290.893 25.3049 290.414 25.1705 289.854 25.1705C289.297 25.1705 288.818 25.3049 288.416 25.5739C288.015 25.8428 287.706 26.2386 287.49 26.7614C287.278 27.2841 287.172 27.9242 287.172 28.6818C287.172 29.4394 287.278 30.0795 287.49 30.6023C287.706 31.125 288.015 31.5208 288.416 31.7898C288.818 32.0587 289.297 32.1932 289.854 32.1932C290.414 32.1932 290.893 32.0587 291.291 31.7898C291.693 31.5208 292 31.125 292.212 30.6023C292.428 30.0795 292.536 29.4394 292.536 28.6818Z" fill="white"/>
</svg>
