<svg width="16" height="17" viewBox="0 0 16 17" fill="none" xmlns="http://www.w3.org/2000/svg">
<path d="M13 9.0002C13 8.63591 13.0974 8.29437 13.2675 8.0002H8.5C7.67157 8.0002 7 7.32863 7 6.5002V0.0166016C3.09098 0.273895 0 3.52608 0 7.5002C0 11.4743 3.09098 14.7265 7 14.9838V13.0002C7 11.8956 7.89543 11.0002 9 11.0002C9.36429 11.0002 9.70583 11.0976 10 11.2678V11.0002C10 9.89563 10.8954 9.0002 12 9.0002C12.3643 9.0002 12.7058 9.09759 13 9.26775V9.0002ZM8 0.0166016V6.5002C8 6.77634 8.22386 7.0002 8.5 7.0002H14.9836C14.7372 3.25645 11.7438 0.263017 8 0.0166016ZM14 9C14 8.44771 14.4477 8 15 8C15.5523 8 16 8.44772 16 9V16C16 16.5523 15.5523 17 15 17C14.4477 17 14 16.5523 14 16V9ZM8 13C8 12.4477 8.44772 12 9 12C9.55228 12 10 12.4477 10 13V16C10 16.5523 9.55228 17 9 17C8.44772 17 8 16.5523 8 16V13ZM11 11C11 10.4477 11.4477 10 12 10C12.5523 10 13 10.4477 13 11V16C13 16.5523 12.5523 17 12 17C11.4477 17 11 16.5523 11 16V11Z" fill="#0F6CBD"/>
</svg>
