<svg width="100" height="100" viewBox="0 0 100 100" fill="none" xmlns="http://www.w3.org/2000/svg">
<g clip-path="url(#clip0_107_532)">
<path d="M49.8975 4.19336C24.6024 4.19336 4.09717 24.7015 4.09717 50.0052C4.09717 75.299 24.6024 95.8106 49.8975 95.8106C75.1918 95.8106 95.7022 75.299 95.7022 50.0052C95.7022 47.2352 95.4564 44.52 94.9808 41.8887C91.1543 20.4618 72.4261 4.19336 49.8975 4.19336Z" fill="#002D62"/>
<path d="M49.8975 0C22.3406 0 0 22.3868 0 50.0054C0 77.6089 22.3402 100 49.8975 100C77.4582 100 99.7984 77.6089 99.7984 50.0049C99.7984 22.3868 77.4582 0 49.8975 0ZM49.8975 97.6902C23.5616 97.6902 2.20225 76.3416 2.20225 50.0054C2.20225 23.6584 23.5621 2.30547 49.8975 2.30547C76.2363 2.30547 97.5944 23.6584 97.5944 50.0045C97.5944 76.3408 76.2363 97.6894 49.8975 97.6894" fill="#002D62"/>
<path d="M49.8977 2.30566C23.5576 2.30566 2.20508 23.6586 2.20508 50C2.20508 76.3414 23.5576 97.6892 49.8977 97.6892C76.2366 97.6892 97.5895 76.3414 97.5895 50C97.5895 23.6586 76.2366 2.30566 49.8977 2.30566ZM95.7024 50V50.0043C95.7024 75.2981 75.1924 95.811 49.8986 95.811C24.6026 95.811 4.09523 75.2994 4.09523 50.0004C4.09523 24.7015 24.6022 4.19328 49.8977 4.19328C72.4272 4.19328 91.1549 20.4621 94.981 41.8887C95.4625 44.5656 95.7037 47.2801 95.7015 50" fill="#EB6E1F"/>
<path d="M66.35 78.9774L63.4401 80.4424L62.9375 81.9901L66.2485 88.5576L67.7915 89.0585L70.7014 87.5934L71.2066 86.0552L67.893 79.4868L66.35 78.9774ZM69.4273 86.5056L67.666 87.3918L67.3467 87.2865L64.6067 81.8664L64.7124 81.541L66.4763 80.6496L66.7974 80.755L69.5374 86.1836L69.4273 86.5056ZM41.1667 85.0268L42.3033 85.2101L42.8316 84.1492L43.7683 84.3054L42.7558 90.8138L42.0708 91.015L41.8808 92.2095L44.7008 92.6505L44.884 91.4517L44.2898 91.0621L45.3002 84.5392L46.2377 84.6817L46.4188 85.8437L47.5662 86.0278L47.9712 83.3862L41.5759 82.3947M32.0019 79.5425L30.5176 82.5L31.027 84.0438L33.3132 85.1784L33.4181 85.5089L32.5135 87.3139L32.1894 87.4192L30.2329 86.4366L30.3202 85.4862L29.2799 84.9575L28.1826 87.1486L32.0631 89.1009L33.606 88.5863L35.0895 85.6236L34.5774 84.0896L32.2956 82.9414L32.1885 82.6203L33.0961 80.8059L33.4172 80.7049L35.3763 81.6831L35.2847 82.6387L36.3225 83.1627L37.4202 80.9763L33.5328 79.0326M77.2517 75.4594L75.4304 77.2597H75.0879L73.6666 75.8126L73.6709 75.4684L75.2352 73.9387L76.1052 74.3339L76.937 73.5119L75.2202 71.7758L72.1292 74.8168L72.1185 76.4471L74.4376 78.7993L76.0636 78.8134L77.8823 77.0264H78.2175L79.6423 78.4593V78.7993L78.0826 80.338L77.208 79.9475L76.374 80.7609L78.0874 82.5056L81.1827 79.4564L81.1942 77.8261L78.8725 75.4843M58.8793 90.3317L57.7379 87.9522L58.5394 86.8408L58.0278 83.5699L56.719 82.6195L51.784 83.4004L51.9724 84.5991L52.6617 84.7961L53.6952 91.337L53.1001 91.7369L53.2906 92.9356L56.1017 92.4861L55.9158 91.2916L55.2291 91.099L54.8323 88.591L56.2237 88.3752L57.3171 90.6528L56.8205 90.9975L57.0131 92.1911L59.8267 91.7459L59.6384 90.5514L58.8797 90.3309L58.8793 90.3317ZM56.7181 86.7261L54.587 87.0523L54.1965 84.5863L56.3234 84.2506L56.5966 84.4527L56.9134 86.4508L56.7181 86.7265V86.7261ZM25.4358 72.6068L18.7712 77.4704L18.1034 77.2319L17.2531 78.0954L19.2923 80.0982L20.1374 79.23L19.8873 78.5638L20.7367 77.9486L22.5027 79.6842L21.9012 80.543L21.2351 80.3088L20.3904 81.1724L22.4248 83.1657L23.2742 82.3022L23.0242 81.6403L27.7635 74.8845L25.4358 72.606V72.6068ZM22.0048 77.0251L25.2859 74.6233L25.7406 75.0728L23.4031 78.408L22.0048 77.0251ZM20.574 31.4993L21.5317 32.2433L23.2815 29.9927L22.3246 29.2533L21.688 29.5787L19.6831 28.0216L21.1529 26.1292L23.1556 27.6911L22.9904 28.3898L23.9523 29.1339L25.7025 26.8828L24.7478 26.1387L24.1043 26.47L18.8753 22.405L19.0379 21.7071L18.0802 20.9622L16.3335 23.2086L17.2882 23.9526L17.9248 23.6273L19.9319 25.1788L18.4621 27.0763L16.4551 25.5136L16.6203 24.8209L15.6648 24.0717L13.9082 26.3228L14.8702 27.0668L15.5064 26.7449L20.738 30.8053M70.1825 23.5528L71.7837 23.2586L75.9699 17.2143L75.683 15.62L73.003 13.7598L71.407 14.0543L67.2157 20.0995L67.5102 21.702L70.1825 23.5528ZM72.3206 15.4646L72.6489 15.4046L74.2771 16.5255L74.3327 16.8607L70.8735 21.8578L70.5409 21.9178L68.917 20.7918L68.8596 20.4621L72.3206 15.4646ZM29.5761 23.5853L32.254 21.7204L32.5357 20.1363L28.3423 14.0826L26.7441 13.7923L24.0726 15.6435L23.7772 17.2417L27.9771 23.2912L29.5761 23.5853ZM25.4816 16.5576L27.1007 15.4325L27.4402 15.4924L30.8995 20.4801L30.8417 20.82L29.2204 21.9417L28.8873 21.8904L25.4195 16.9027L25.4816 16.5576ZM34.872 11.3032L36.9595 17.9777L38.3946 18.7213L41.5044 17.7559L42.2537 16.314L40.1653 9.63947L40.6936 9.16254L40.3284 8.0006L37.6111 8.85L37.9763 10.0115L38.684 10.0993L40.5848 16.1616L40.4239 16.4655L38.5478 17.0478L38.2396 16.9014L36.343 10.8391L36.876 10.3656L36.5061 9.19893L33.7918 10.0526L34.1545 11.2056M58.7967 16.6496L58.4388 17.8026L61.1556 18.6477L61.5165 17.4858L60.9878 17.008L62.9512 10.7201L63.8545 11.0048L63.8656 12.1808L64.9676 12.5251L65.7648 9.97127L59.5827 8.04769L58.7907 10.5968L59.8909 10.9367L60.5674 9.97212L61.4729 10.2577L59.5121 16.5546M52.6416 15.5609V12.2588L51.4964 11.1062H48.9405L48.7033 10.8708V8.84572L48.9405 8.60725H51.1295L51.4737 9.49862H52.6424V7.05957H48.3004L47.1501 8.20267V11.5147L48.3009 12.6535H50.8546L51.0956 12.8975V14.9277L50.8546 15.1662H48.6656L48.3261 14.2705H47.1505V16.7096H51.4981M84.1615 24.1089L83.2111 24.8624L83.3712 25.556L79.8071 28.3303L83.1349 22.786L81.6172 20.8474L80.6599 21.5915L80.8252 22.2851L75.5978 26.3592L74.9642 26.0329L74.0022 26.7821L75.7592 29.0324L76.7191 28.2832L76.5478 27.581L80.1128 24.8068L76.7919 30.351L77.9058 31.7788L84.3225 26.7719L84.9561 27.1071L85.9181 26.3536" fill="white"/>
<path d="M66.0282 40.5934H76.8262C72.9911 29.6111 62.6319 21.7023 50.3962 21.4912L55.0054 35.6879H66.0286V40.593L66.0282 40.5934ZM33.7701 66.4382V61.5374L37.6395 60.1503L37.6399 52.2963L22.6899 41.4287C21.8174 44.2035 21.3745 47.0954 21.3765 50.0041C21.3765 59.3142 25.8409 67.5723 32.7465 72.7805L34.8015 66.4382H33.7701ZM33.7701 35.6884H44.7908L49.4068 21.4916C37.1686 21.6971 26.8093 29.6111 22.9695 40.5934H33.7701V35.6884ZM52.0081 62.7452L49.8974 61.2069L47.7851 62.7452V66.4382H42.7093L33.3634 73.2266C38.0205 76.5617 43.7295 78.5226 49.8974 78.5226C56.0667 78.5226 61.7727 76.5575 66.4366 73.2266L57.0882 66.4382H52.0081V62.7452ZM77.1088 41.4424L62.1682 52.3057V60.1507L66.0286 61.5379V66.4387H64.9947L67.0574 72.7814C73.9587 67.5728 78.4249 59.3103 78.4249 50.005C78.4249 47.0141 77.9603 44.1439 77.1088 41.4424Z" fill="#002D62"/>
<path d="M49.8973 80.5903C33.0007 80.5903 19.2974 66.903 19.2974 50.0048C19.2974 33.1023 33.0007 19.4014 49.8977 19.4014C66.7982 19.4014 80.4968 33.1023 80.4968 50.0052C80.4968 66.9022 66.7982 80.5898 49.8982 80.5898" fill="#002D62"/>
<path d="M49.896 19.4008C32.9959 19.4008 19.2974 33.1018 19.2974 50.0047C19.2974 66.9016 32.9959 80.5944 49.896 80.5944C66.8004 80.5944 80.4938 66.9016 80.4938 50.0047C80.4938 33.1022 66.8004 19.4004 49.896 19.4004M67.0577 72.7815L64.9954 66.4388H57.0889L66.4399 73.2276C61.7734 76.5619 56.0665 78.5236 49.896 78.5236C43.7319 78.5236 38.0208 76.5619 33.3611 73.2276L42.7126 66.4388H37.7956L32.3598 73.9623L32.7434 72.7815C25.8403 67.5729 21.3767 59.3152 21.3767 50.0051C21.3767 47.0142 21.8348 44.1398 22.6898 41.434L37.6398 52.3055V50.4131L26.2239 42.1092L21.5206 40.5936H22.9698C26.81 29.6108 37.1688 21.6973 49.4071 21.4905L49.8964 19.9707V47.9231H55.8786V41.976L52.0092 40.5932V35.6885H55.0086L50.3926 21.4918C62.6326 21.7024 72.9901 29.6117 76.8231 40.5936H78.2813L73.5826 42.1134H62.1689V52.2969L77.1104 41.443C77.9834 44.2132 78.4262 47.101 78.4234 50.0056C78.4234 59.3105 73.9581 67.5734 67.0577 72.782" fill="#EB6E1F"/>
<path d="M55.8782 60.1511V54.2031H46.6321L43.9199 57.9604V60.1511L47.7824 61.5382V62.7456L49.8973 61.2077L52.008 62.746V61.5387" fill="#EB6E1F"/>
<path d="M62.1677 41.9761V42.1139H73.5822L78.2804 40.5941H66.0314M47.7854 35.689V40.5941L43.9203 41.9761V47.9198H49.8981V19.9707L49.4075 21.4914L44.7911 35.6881M43.9203 57.9602L46.6303 54.2077H43.9203M36.7416 60.4682L37.6398 60.1514L36.7416 60.4639M32.7459 72.782L32.358 73.9624L37.7986 66.4389H34.806M33.7704 40.5941H21.5176L26.2183 42.1096L37.6389 50.414V41.9756" fill="#F4911E"/>
<path d="M33.77 61.5374V66.4382L35.0116 65.1838H46.5366V62.4053L47.7858 61.5374L43.9208 60.1503L42.6715 61.0228V52.9526H57.1283L55.8782 54.2028V60.1503L52.0122 61.5374V66.4382L53.2606 65.1838H64.7822V62.4053L66.0289 61.5374L62.1664 60.1503L60.915 61.0228V41.0935L64.7822 39.7063V36.9363L66.0289 35.6879H52.0114V40.593L53.2598 39.7068L57.1274 41.093L55.8773 41.975V47.9187H43.9199L42.6707 49.168V41.0935L46.5357 39.7063V36.9363L47.785 35.6875H33.77V40.5926L35.0116 39.7063L38.8835 41.0926L37.6394 41.9746V60.1494" fill="white"/>
<path d="M66.0282 40.5935V35.6885L64.7815 36.9416V39.7073L60.9143 41.0936V61.023L62.1678 60.1504V41.9755M66.0282 61.5376L64.7815 62.4058V65.1844H53.2599L52.0085 66.4388H66.0286M43.92 54.2072H55.8774L57.1276 52.9527H42.6708V61.0272L43.92 60.1504V57.9597M47.7851 62.7453V61.538L46.5384 62.4058V65.1844H35.0117L33.7676 66.4388H47.7851M38.8836 41.0936L35.0121 39.7065L33.7723 40.5935L37.6399 41.9755M53.2599 39.7069L52.0085 40.5931L55.8762 41.976L57.128 41.094M47.7851 40.5935V35.6885L46.5384 36.9416V39.7073L42.6708 41.0936V49.1681L43.92 47.9239V41.9751" fill="#E7E9EA"/>
</g>
<defs>
<clipPath id="clip0_107_532">
<rect width="100" height="100" fill="white"/>
</clipPath>
</defs>
</svg>
