<svg width="100" height="100" viewBox="0 0 100 100" fill="none" xmlns="http://www.w3.org/2000/svg">
<g clip-path="url(#clip0_107_551)">
<path d="M50.0015 0C22.431 0 0 22.431 0 50.001C0 77.5715 22.431 100 50.0015 100C77.57 100 100 77.5715 100 50.001C100 22.431 77.57 0 50.0015 0ZM50.0015 98.306C23.322 98.306 1.6955 76.678 1.6955 50.001C1.6955 23.3245 23.322 1.695 50.0015 1.695C76.6795 1.695 98.305 23.3245 98.305 50.001C98.3045 76.678 76.679 98.306 50.0015 98.306Z" fill="white"/>
<path d="M37.6191 79.0621C38.2156 79.3191 38.8186 79.5471 39.4271 79.7661C39.0683 79.5647 38.7458 79.3044 38.4731 78.9961C38.1731 79.0596 37.9031 79.0791 37.6191 79.0621Z" fill="white"/>
<path d="M96.0821 49.1379H81.7016C81.6376 46.9424 81.3226 44.7574 80.8071 42.6109C80.5636 42.2459 80.3281 41.9969 80.0931 41.8279L80.3071 41.3444L80.5426 41.6084C80.4506 41.2725 80.3796 40.9314 80.2761 40.5979C79.9526 39.9164 79.5621 39.445 79.1571 39.0064L79.2831 38.5759C79.4711 38.7619 79.6021 38.9044 79.7121 39.0344C78.1866 34.9104 75.8056 31.0324 72.4906 27.7184C65.5251 20.751 56.1141 17.7214 47.0181 18.6199C47.0531 18.6169 47.0881 18.6114 47.1231 18.6084C47.4451 18.8329 47.8951 19.1975 47.8951 19.1975L47.5271 19.2525C47.4236 19.0785 46.7071 18.7925 46.4641 18.7005C46.0796 18.7455 45.6966 18.8074 45.3131 18.8664C45.7132 19.0891 46.0924 19.3475 46.4461 19.6385L45.9486 19.6835C45.4336 19.431 44.9556 19.129 44.4431 18.9925C43.8366 19.103 43.2386 19.253 42.6386 19.399C42.7661 19.4345 42.8726 19.4999 43.0446 19.5809C43.4421 19.5899 44.5346 20.1275 44.5346 20.1275L43.6936 20.3955C43.3371 20.2135 42.9471 19.9309 42.3856 20.0299C42.2031 19.8239 41.7236 19.724 41.4746 19.6835C40.9656 19.8275 40.4661 20.0064 39.9631 20.1774C40.1516 20.2174 40.3661 20.2715 40.5711 20.434C41.1826 20.446 42.2766 20.9214 42.3706 21.0764L41.5241 21.3749C41.1026 21.107 40.5241 20.8169 39.9366 20.9169C39.6681 20.6854 39.1461 20.5549 38.9886 20.5179C38.4736 20.7119 37.9651 20.9219 37.4586 21.1439C37.7476 21.1539 38.1516 21.0325 38.3521 21.3325C38.8626 21.3065 39.7511 21.6514 40.2366 22.0889L39.3341 22.3199C38.9241 22.0609 38.2441 21.6774 37.6136 21.7379C37.5111 21.5019 36.6951 21.6099 36.3856 21.6424C33.2856 23.1424 30.3696 25.146 27.7971 27.7179C21.8411 33.6714 18.7886 41.4115 18.5786 49.2129L3.91357 49.1974C3.90907 49.4659 3.89307 49.7319 3.89307 50.0019C3.89307 49.9969 3.89657 49.9979 3.89707 49.9929C3.89557 50.0714 3.89307 50.1444 3.89307 50.2274C3.89307 50.4359 3.90557 50.6399 3.90907 50.8479H18.5751C18.6861 55.3669 19.7836 59.8549 21.8141 64.0009C22.7036 64.8755 23.9056 65.3904 24.5091 65.5809L24.7256 66.5939C24.0171 66.2579 23.3781 66.1105 22.4421 65.2594C22.8884 66.08 23.3715 66.88 23.8901 67.6569C24.5371 68.1839 25.3416 68.7134 25.3416 68.7134L25.6236 69.1894C25.3311 69.0854 24.9706 68.8864 24.6581 68.6994C25.6041 69.9914 26.6266 71.2449 27.7946 72.4129C30.2626 74.8799 33.0446 76.8319 36.0026 78.3124L36.0746 78.0709C36.8621 78.3029 37.4826 78.8289 38.6236 78.5379C39.1366 79.0264 40.0096 79.6129 40.7036 79.7844L40.4676 80.1314C51.3846 83.6334 63.8236 81.0779 72.4891 72.4109C78.4801 66.4209 81.5361 58.6234 81.7111 50.7734H96.0916C96.0946 50.5654 96.1076 50.3609 96.1076 50.1529C96.1076 50.1014 96.1041 50.0509 96.1036 49.9994C96.1001 49.7114 96.0881 49.4254 96.0821 49.1379ZM78.7596 39.8149C79.5856 40.6494 79.7801 40.8509 80.1496 41.6054L79.9316 42.0554C79.5686 41.1794 79.1816 40.7705 78.6056 40.2754L78.7596 39.8149ZM76.1226 44.1064C76.8346 44.6004 77.4536 45.5489 77.8206 46.2979L77.4721 46.8199C77.1026 45.9384 76.2206 44.9784 75.6386 44.6219L76.1226 44.1064ZM69.2136 50.6454C69.7081 50.9834 70.2786 51.5409 71.1306 52.7879L71.7861 52.3654C71.9551 53.6189 71.9926 54.9909 71.8501 56.1719L71.1446 56.7194C71.3216 55.9814 71.1926 54.4489 71.1106 52.8349L70.5266 53.3174C69.5491 51.8619 68.8596 51.1744 68.6031 51.0999L69.2136 50.6454ZM69.2801 58.1804L68.3681 58.7639C68.3041 57.5084 68.6646 55.0799 68.6646 55.0799C67.8696 55.3759 66.1706 53.4139 65.7946 53.1304L66.6281 52.6224C67.7541 53.859 68.3636 54.2049 68.7211 54.4549C68.9466 54.6124 69.4921 54.0499 69.4571 54.0844C69.2931 54.7349 69.2496 57.5199 69.2801 58.1804ZM65.6396 57.2814C65.2001 57.2674 63.0506 55.5589 62.3941 54.8824L63.5276 54.2639C63.5276 54.2639 64.9026 55.8939 65.3156 56.2479C65.7321 56.6019 66.1976 56.7139 66.5646 56.5849L66.6001 56.6474C66.5411 57.6364 66.5141 59.4764 67.1066 60.0934L66.0791 60.5229C65.5286 59.4184 65.7086 58.6719 65.7016 57.2344L65.6396 57.2814ZM65.6446 31.4149L67.9246 33.5465V47.1254H63.8111L61.2936 44.7414H65.6451L65.6446 31.4149ZM64.7956 32.2104V43.8924H62.0876L62.0916 43.3914C62.0916 38.9919 58.8931 36.4709 53.3151 36.4709L52.9331 36.4704L52.4851 36.4674V45.8954C52.4851 47.3869 53.8586 48.3794 54.7946 48.9024C53.8466 49.3449 52.4851 50.2254 52.4851 51.8274V62.0389C52.4851 63.3685 53.3326 64.0429 55.0071 64.0429H56.7706V68.5914H41.7286V64.0429H43.5931C45.1101 64.0429 46.0141 63.2589 46.0141 61.9449V51.8274C46.0141 50.2089 44.8476 49.3549 43.9981 48.9184C44.8406 48.4369 46.0141 47.5144 46.0141 45.8954V36.4499H45.0971C39.3421 36.4499 36.7776 38.6709 36.7776 43.6514L36.8491 43.4149C36.8491 43.4149 36.8286 43.6539 36.8066 43.8924H33.1786V32.2104H64.7956ZM57.0131 48.9644L55.9486 48.5469C55.9216 48.5364 53.3341 47.5054 53.3341 45.8954V37.3249C56.2411 37.3335 58.3716 38.0554 59.6936 39.3764C58.8786 38.7599 57.7301 38.3384 56.1386 38.2024L55.7296 38.1769V46.8519C55.7296 47.7414 56.3496 48.4494 57.0131 48.9644ZM35.3661 22.4274C35.6571 22.4634 35.6211 22.5454 35.8741 22.6339C36.3791 22.6094 37.3461 22.793 37.9641 23.1279L37.1756 23.7264C36.7756 23.4769 36.0841 23.2589 35.4586 23.3119C35.3371 23.043 34.4201 23.025 34.2826 23.0169L35.3661 22.4274ZM32.6411 24.1189C32.6411 24.1189 33.0001 24.3639 33.1551 24.6024C33.7951 24.4349 35.0581 24.3739 36.2491 24.5829L35.4571 25.2854C34.4026 25.0484 33.3231 25.341 32.5871 25.4784C32.3676 25.1704 32.2461 24.8664 31.8866 24.7539L32.6411 24.1189ZM30.3931 26.4539C30.3931 26.4539 30.7146 26.6709 30.9341 27.0429C31.5736 26.7324 32.4176 26.471 34.4721 26.6184L33.7731 27.5189C32.4176 27.3349 31.0776 27.5499 30.4686 27.8519C30.2441 27.5494 30.1286 27.1414 29.7686 27.0299L30.3931 26.4539ZM25.4166 33.6454C25.4166 33.6454 26.0291 34.2299 26.3011 34.9109C26.4501 34.4149 27.5976 34.0569 29.2586 34.0569L28.6941 35.0944C27.3281 34.912 26.4116 35.4779 25.8011 35.7794C25.5801 35.4804 25.5061 34.8754 25.0486 34.6264L25.4166 33.6454ZM22.8246 39.5594C22.8246 39.5594 23.5861 40.4879 23.8051 40.8599C23.9641 40.361 24.8361 40.1649 26.8301 40.0454L26.4901 41.0584C25.1336 40.8774 24.1151 41.4344 23.5101 41.7459C23.2846 41.4344 23.0791 40.8314 22.6201 40.5779L22.8246 39.5594ZM20.2536 56.0094C20.2536 56.0094 21.5626 56.4904 21.7846 56.8699C22.2631 56.5864 22.9336 56.4829 24.2376 57.0679L24.2676 58.0614C23.1921 57.486 22.3261 57.4559 21.7186 57.7679C21.4931 57.4614 20.8466 57.1344 20.3156 57.0089L20.2536 56.0094ZM20.2561 52.7024C20.2561 52.7024 21.6306 53.8784 21.8346 54.2579C21.9101 53.9514 21.8771 53.736 24.2646 53.8524L24.2541 54.8179C22.2291 54.3909 21.9126 54.6359 21.6301 55.1089C21.4236 54.791 20.7236 54.0854 20.2761 53.8174L20.2561 52.7024ZM20.4841 58.6769C20.4841 58.6769 21.6281 59.195 21.8431 59.5669C21.9971 59.076 23.0741 59.6144 24.1746 60.3209L24.2001 61.3209C23.6976 61.0449 23.3716 60.8134 22.9331 60.6104C22.4406 60.3924 22.0596 60.2194 21.9431 60.5324C21.7211 60.222 21.3331 59.9409 20.7401 59.7869L20.4841 58.6769ZM22.2081 63.0494C21.9826 62.7134 21.6126 62.4404 21.1331 62.2439L20.9936 61.2369C20.9936 61.2369 21.8976 61.7334 22.1196 62.1384C22.5246 62.1384 23.0791 62.0849 24.2186 63.0374L24.3006 63.9834C23.1851 63.1854 22.7281 62.9854 22.2081 63.0494ZM24.4791 51.2029C22.9771 51.1399 22.2781 51.5544 22.0361 51.8464C21.9001 52.0135 21.8346 52.1979 21.7846 52.2544C21.5616 51.9505 20.8231 50.7129 20.4226 50.5349L20.4921 49.5204C20.4921 49.5204 21.6361 50.6609 21.9026 51.3684C21.9401 51.2389 21.9936 51.0079 22.1311 50.8874C22.2771 50.7169 22.8336 50.2934 24.5646 50.2729L24.4791 51.2029ZM24.8701 47.7359C23.5056 47.6229 22.5081 48.1149 22.2441 48.6394C22.0106 48.3524 21.6801 47.6919 20.8781 47.0019L21.0371 45.9494C21.0371 45.9494 22.2416 47.1984 22.4801 47.5689C22.6931 47.1044 23.4211 46.8379 25.0396 46.7454L24.8701 47.7359ZM25.6266 44.2055C24.2776 44.013 23.3211 44.8634 22.7101 45.1749C22.4896 44.8609 22.1521 44.084 21.7021 43.6644L21.9151 42.5784C21.9151 42.5784 22.8536 43.8789 23.0706 44.2529C23.5511 43.6644 23.8656 43.445 25.8391 43.2974L25.6266 44.2055ZM27.3706 38.2389C26.0101 38.0519 25.2611 38.5569 24.6496 38.8684C24.4291 38.5569 24.2186 37.9519 23.7661 37.6979L24.0686 36.6794C24.0686 36.6794 24.7406 37.4389 25.0486 38.0479C25.2036 37.5579 25.7396 37.3849 27.8056 37.2579L27.3706 38.2389ZM29.9171 32.4964C28.5656 32.3004 27.7781 32.898 27.1681 33.2135C26.9426 32.9055 26.7381 32.3005 26.4116 32.053L26.7806 31.1684C26.7806 31.1684 27.3526 31.7854 27.5681 32.3004C27.7221 31.8019 28.8336 31.4504 30.5586 31.4504L29.9171 32.4964ZM28.6016 30.4714C28.3836 30.1639 28.4271 29.8699 27.9731 29.6214L28.4671 28.8429C28.4671 28.8429 28.8541 29.2214 29.0671 29.5944C29.2226 29.1019 30.3936 28.915 32.5206 28.8674L31.8256 29.7679C30.4646 29.5789 29.2146 30.1639 28.6016 30.4714ZM34.7621 46.9829L32.3716 44.7409H37.6156L37.6216 43.7019C37.6266 39.1389 39.7911 37.2984 45.0976 37.2984H45.1661V38.0329C40.2101 38.527 39.7531 41.4729 39.7531 46.1449L39.7481 46.9824L34.7621 46.9829ZM40.8801 68.8209V69.3179C40.7676 69.2679 40.6556 69.2169 40.5556 69.1694L40.8801 68.8209ZM40.9941 78.8509C40.0121 78.4854 39.6376 78.1299 39.1936 77.4994C38.3871 77.6724 37.3216 77.7594 36.2161 77.1879L36.4341 76.5184C37.2191 76.7519 38.2756 77.2619 39.4161 76.9724C39.8906 77.6789 40.3006 78.2149 41.3456 78.3419L40.9941 78.8509ZM41.7046 77.5539C40.7181 77.1859 40.2706 76.541 39.8591 75.8629C39.0486 76.0319 37.9391 75.9474 36.7441 75.5379L37.0731 74.7829C37.8641 75.0149 39.0736 75.4344 40.2216 75.1444C40.4881 76.1409 41.2496 76.5755 42.0666 76.9104L41.7046 77.5539ZM42.7306 75.5729C41.5816 74.8994 41.4671 74.4119 41.0206 73.5944L40.9586 73.7074C39.7316 73.8449 38.7706 73.7909 37.6681 73.4484L38.0736 72.7319C38.8621 72.9624 40.2486 73.2164 41.3896 72.9229L41.5111 72.7319C41.6846 73.4729 42.5651 74.6389 43.2886 74.9309L42.7306 75.5729ZM43.9206 74.1724C42.9411 73.8019 42.5516 72.875 42.1481 71.9804L42.0896 72.0644C41.1201 72.0644 40.0431 72.0205 38.9376 71.4414L39.3891 70.7629C40.1746 70.9929 41.4766 71.5649 42.5751 71.3554L42.6386 71.2644C42.8131 72.0064 43.7571 73.2379 44.4776 73.5264L43.9206 74.1724ZM45.2926 72.4734C45.0526 72.4059 44.8586 72.1939 44.6901 71.9194H43.5531L40.9316 69.4404H57.6206V63.2484L58.2326 63.8184C57.9361 62.9479 58.0411 62.2124 58.0321 60.9689L57.7806 61.1149C57.2066 61.0509 56.4491 60.5319 55.7291 59.8989V62.9899C55.7321 63.0604 55.7291 63.1279 55.7261 63.1934H55.0066C53.6181 63.1934 53.3336 62.7309 53.3336 62.0379V51.8264C53.3336 50.0949 55.8816 49.3574 55.9086 49.3504L57.0816 49.0194C57.5576 49.3717 58.0739 49.6661 58.6196 49.8964C58.6196 49.8964 55.7291 50.6969 55.7291 52.7844V58.5729L55.7971 58.5444C56.3516 59.2964 57.5486 60.3994 58.6561 60.5819L58.9311 60.4189C58.8696 61.4114 58.8466 63.2449 59.4391 63.8659L58.6436 64.1994L59.6411 65.1279V71.9179H45.8361L45.2926 72.4734ZM61.8271 59.1064L61.5751 59.2539C60.7351 59.1564 59.4936 58.0884 58.5576 57.1114L59.5911 56.6819C60.1466 57.4379 61.3426 58.541 62.4526 58.7194L62.7246 58.5594C62.6656 59.5474 62.6401 61.3869 63.2351 62.0049L62.2026 62.4339C61.6501 61.3184 61.8381 60.5739 61.8271 59.1064ZM73.8016 54.6514L73.0756 55.2294C73.2366 54.4949 73.2451 52.9184 73.1286 51.5154L72.7361 51.9314C72.3731 51.0524 71.1626 49.9284 70.5731 49.5784L71.1631 49.0554C71.8186 49.5084 72.6821 50.4925 73.1046 51.2274L73.6166 50.8529C73.8416 51.924 73.9181 53.3869 73.8016 54.6514ZM74.4021 50.2864C74.0401 49.4054 72.8286 48.2819 72.2421 47.9334L72.8296 47.4104C73.5426 47.9014 74.5171 49.0274 74.8861 49.7724L74.4021 50.2864ZM75.7946 53.0499L75.1036 53.6949C75.2461 50.8529 75.1051 50.2799 74.9226 49.8094L75.4701 49.2644C75.6996 50.3364 75.8151 50.9184 75.7946 53.0499ZM74.0476 46.1714L74.6046 45.7224C75.3441 46.2224 76.2841 47.1724 76.6536 47.9229L76.2276 48.5104C75.8641 47.6269 74.4531 46.4419 74.0476 46.1714ZM77.6311 51.1149L76.9926 51.9559C77.1696 50.8955 76.9696 49.0644 76.6486 47.9889L77.1411 47.3459C77.3626 48.417 77.7386 49.9144 77.6311 51.1149ZM78.7876 49.6974C78.7076 48.3579 78.4411 47.3549 77.7461 46.4634L77.9951 46.0374C78.3411 45.7184 79.2636 47.5439 79.2786 48.9434L78.7876 49.6974ZM79.9236 47.754C79.5476 45.5765 78.9716 45.1565 78.6521 44.8794L78.4621 45.1904C78.0926 44.3104 77.4861 43.4389 76.9041 43.0784L77.2891 42.5644C77.9981 43.0569 78.4481 43.8635 78.8191 44.6084L78.7171 44.7744L78.8521 44.6084C78.9316 44.1469 79.8961 44.9264 80.2141 46.9959L79.9236 47.754ZM80.7211 45.8979C80.4236 44.3104 79.9311 43.7334 79.4961 43.3729L79.5171 43.3139L79.3356 43.6999C78.9741 42.688 78.6316 42.3059 77.8571 41.6149L78.1431 41.1584C78.9696 41.9139 79.2091 42.4194 79.5756 43.1539L79.6411 42.9744C79.7936 42.5804 80.8591 43.8514 80.9466 44.9964L80.7211 45.8979Z" fill="white"/>
<path d="M67.2245 13.4395C66.787 13.8495 65.397 15.1475 65.1455 15.3835L66.905 16.2145C66.942 15.8885 67.155 14.0345 67.2245 13.4395Z" fill="#C0111F"/>
<path d="M18.5786 49.2126C18.7886 41.4111 21.8411 33.6711 27.7951 27.7171C30.3676 25.1451 33.2836 23.1416 36.3836 21.6416C36.3356 21.6466 36.2986 21.6501 36.2791 21.6501L37.3946 21.1436C37.4131 21.1466 37.4366 21.1426 37.4566 21.1436C37.961 20.9215 38.4712 20.7127 38.9866 20.5176C38.9727 20.5137 38.9587 20.5104 38.9446 20.5076C39.2666 20.3866 39.5886 20.2726 39.9126 20.1636C39.9281 20.1666 39.9461 20.1731 39.9616 20.1766C40.4646 20.0056 40.9641 19.8271 41.4731 19.6826L41.4531 19.6791C41.8261 19.572 42.201 19.4717 42.5776 19.3781C42.5996 19.3816 42.6166 19.3931 42.6371 19.3986C43.2371 19.2526 43.8356 19.1021 44.4416 18.9921C44.4366 18.9901 44.4316 18.9871 44.4266 18.9861C44.7046 18.9361 44.9816 18.8811 45.2626 18.8371C45.2806 18.8466 45.2941 18.8561 45.3121 18.8666C45.6951 18.8076 46.0781 18.7456 46.4631 18.7006L46.4261 18.6861C46.6221 18.6631 46.8201 18.6406 47.0171 18.6206C56.1131 17.7221 65.5241 20.7516 72.4896 27.7191C75.8046 31.0331 78.1861 34.9111 79.7111 39.0351C79.7421 39.0716 79.7811 39.1131 79.8076 39.1471C79.9976 39.6681 80.1766 40.1926 80.3401 40.7256C80.3196 40.6796 80.2966 40.6431 80.2751 40.5986C80.3791 40.9321 80.4496 41.2731 80.5416 41.6091L80.6141 41.6901C80.7051 42.0236 80.7921 42.3606 80.8706 42.6966C80.8486 42.6621 80.8281 42.6441 80.8066 42.6116C81.3221 44.7581 81.6371 46.9436 81.7011 49.1386H96.0816C96.0876 49.4261 96.0991 49.7121 96.1036 49.9996C96.1036 50.0011 96.1076 50.0011 96.1076 50.0021C96.1076 24.5771 75.4246 3.89258 50.0006 3.89258C24.8456 3.89258 4.34609 24.1436 3.91309 49.1971V49.1976L18.5786 49.2126ZM87.0406 34.6221L88.1716 38.1026H91.8341L88.8691 40.2556L90.0016 43.7361L87.0406 41.5841L84.0786 43.7361L85.2096 40.2556L82.2476 38.1026H85.9096L87.0406 34.6221ZM75.6661 23.7116L75.7406 23.6221L76.5536 23.9771L76.4406 24.1326C76.1046 24.5966 75.8046 25.3726 76.2896 26.4201C76.7231 27.2151 77.2641 27.4961 77.6411 27.5911C78.0411 27.6921 78.4516 27.6331 78.7706 27.4266C79.0206 27.2686 79.2116 26.8351 79.2261 26.4081C79.2261 26.4081 79.1756 25.4621 79.1756 25.2721C79.1756 25.2516 79.1756 25.2401 79.1771 25.2401C78.9938 24.9041 78.81 24.5684 78.6256 24.2331L78.7126 24.1511C78.7126 24.1511 79.1591 23.7231 79.1846 23.7396C79.1871 23.7191 79.2026 23.5551 79.2026 23.5716L79.2231 23.2456C79.2666 22.7801 79.4131 22.3441 79.6346 22.0196C79.8156 21.7556 80.1141 21.5926 80.3296 21.5026C81.7196 20.9056 83.1496 21.9671 83.7906 23.2711C84.0651 23.8366 84.4871 24.9061 84.2251 25.7266L84.1736 25.8831L83.4001 25.5816L83.4376 25.4471C83.5926 24.8911 83.5261 24.4151 83.1916 23.6926C82.7976 22.8401 81.8836 22.8171 81.4821 22.9951C81.1501 23.1386 80.9721 23.5856 80.9721 24.2516L80.9736 24.4276C80.9736 24.4556 80.9721 24.4801 80.9686 24.4826C80.9816 24.5061 81.4896 25.3711 81.4896 25.3711C81.4896 25.3711 81.0406 25.8276 80.9626 25.9096C80.9701 26.0111 80.9961 26.3086 80.9961 26.3226L80.9821 27.0736C80.9806 27.2286 80.9166 27.7201 80.6756 28.1301C80.5541 28.3451 80.2781 28.6561 79.9601 28.8226C79.3011 29.1791 78.5971 29.2561 77.9261 29.0456C77.0591 28.7751 76.2946 28.0286 75.7161 26.8876C75.0586 25.5891 75.2021 24.2826 75.6661 23.7116ZM61.3551 17.0551C61.3551 17.0551 62.1016 16.5896 62.0806 16.6051C62.0806 16.6051 64.0991 14.7906 64.1966 14.7016C64.1951 14.5826 64.1906 13.6706 64.1906 13.6706L64.3211 13.6501C64.3211 13.6501 65.3356 13.4936 65.3396 13.5151C65.3486 13.5086 68.0311 11.0286 68.0311 11.0286L68.1081 10.9586L69.2056 11.4841L69.1991 11.5866C69.1991 11.5866 69.0361 15.1336 69.0006 15.1361C69.2585 15.4621 69.5159 15.7886 69.7726 16.1156L69.6661 16.2121C69.6661 16.2121 68.9096 16.8901 68.8851 16.8701C68.8786 16.9101 68.5106 19.5861 68.5016 19.5861L68.7211 20.7516L65.9306 19.4436C65.9306 19.4436 66.5821 18.8896 66.6621 18.8231C66.6731 18.7176 66.7926 17.6486 66.8131 17.4691C66.6351 17.3841 64.4201 16.3391 64.2446 16.2571L63.2636 17.2381C63.2586 17.3431 63.2356 18.1986 63.2356 18.1986L61.1171 17.2046L61.3551 17.0551ZM45.7686 15.5546C45.7686 15.5546 46.5226 14.8416 46.5266 14.8416C46.5266 14.8401 48.5011 12.2321 48.6526 12.0306L48.0806 11.4781C48.0806 11.4781 48.3806 10.9921 48.4541 10.8691C48.1921 10.4731 46.6676 8.15208 46.6676 8.14958L45.7931 7.14958L48.5371 7.14158L48.5526 7.27908C48.5526 7.27908 48.6116 7.80858 48.6116 7.90758C48.6116 7.91758 48.6116 7.92308 48.6086 7.92308C48.6141 7.93058 49.8311 9.79658 50.0346 10.1081L51.6426 7.97408C51.5891 7.84608 51.3786 7.35608 51.3786 7.35608L51.2876 7.14208L53.9331 7.15008L53.0816 8.13358L51.0986 10.7916L51.5936 11.3466L51.2206 11.9376C51.4951 12.3456 53.1326 14.7741 53.1326 14.7791L54.2046 15.8306L51.2641 15.8346L51.2486 15.6971C51.2486 15.6971 51.1881 15.1701 51.1881 15.0726C51.1881 15.0636 51.1881 15.0586 51.1896 15.0576L49.6546 12.7711C49.4341 13.0556 48.0081 14.8996 47.9286 15.0006C47.9541 15.1146 48.1106 15.7956 48.1106 15.7956L45.4821 15.8251L45.7686 15.5546ZM33.4681 10.2576L33.6041 10.1846L34.4721 11.8646L34.2261 11.8696C34.2261 11.8696 33.0646 11.8926 33.0631 11.8781C33.0581 11.8801 31.1471 12.8711 30.9061 12.9966C31.0251 13.2221 31.8406 14.7956 31.9576 15.0201C32.2821 14.8521 33.3951 14.2726 33.3976 14.2786C33.4006 14.2776 34.1061 13.5246 34.1061 13.5246L34.8931 15.1051L34.6806 15.1341C34.6806 15.1341 33.9216 15.2341 33.9216 15.2251C33.9166 15.2261 32.6906 15.8686 32.4651 15.9866C32.5831 16.2186 33.6346 18.2741 33.7576 18.5131C34.1136 18.3246 35.8106 17.4271 35.8191 17.4386C35.8191 17.4356 36.7041 16.2486 36.7041 16.2486L37.5096 17.8646L32.1856 20.6601L32.1881 20.4036C32.1881 20.4036 32.1936 19.6496 32.2091 19.6476L31.0216 17.2436C30.9076 17.2101 29.9356 16.9296 29.9356 16.9296C29.9356 16.9296 30.2856 16.0176 30.3291 15.9061C30.1726 15.6021 29.1621 13.6481 29.1621 13.6066L28.2156 13.0181L33.4681 10.2576ZM19.6176 19.9406L19.7111 19.8251L21.1816 20.9756L20.9486 21.0796C20.9486 21.0796 19.8661 21.5641 19.8586 21.5516C19.8561 21.5566 19.1761 22.3786 19.0221 22.5671C19.2196 22.7341 20.6226 23.9146 20.7126 23.9896C20.8226 23.9791 21.7306 23.8841 21.7306 23.8841L21.7561 24.0246C21.7561 24.0246 21.8911 24.7766 21.8911 24.9116C21.8911 24.9231 21.8896 24.9296 21.8871 24.9296C21.9201 24.9576 23.9386 26.6606 23.9386 26.6876C23.9426 26.6891 25.0401 26.8581 25.0401 26.8581L23.1336 29.1396L23.0311 28.9191C23.0311 28.9191 22.6926 28.1881 22.6926 28.1571L20.6381 26.4286C20.5316 26.4341 19.6021 26.4761 19.6021 26.4761C19.6021 26.4761 19.4971 25.5516 19.4826 25.4426L17.7876 24.0471C17.5681 24.3101 16.9191 25.0811 16.9101 25.0746L16.5666 26.4391L15.1491 25.2721L19.6176 19.9406ZM11.5256 38.1021L12.6556 34.6216L13.7881 38.1021H17.4476L14.4881 40.2526L15.6191 43.7356L12.6556 41.5836L9.69709 43.7356L10.8271 40.2526L7.86609 38.1021H11.5256Z" fill="#C0111F"/>
<path d="M20.8484 76.365C21.0049 76.092 21.7844 74.739 22.0694 74.243C21.5284 74.4365 20.0359 74.9685 19.7204 75.08L20.8484 76.365ZM16.6039 61.5795C16.6499 61.46 16.6729 61.3305 16.6729 61.192C16.6729 61.0215 16.6384 60.837 16.5669 60.641C16.5669 60.641 16.4114 60.2075 16.3424 60.0205C16.1009 60.1025 14.1519 60.758 13.9019 60.8425C13.9889 61.0785 14.1689 61.561 14.1689 61.561C14.2729 61.8405 14.4599 62.0595 14.7114 62.1945H14.7129C15.0424 62.374 15.4654 62.398 15.8659 62.256C16.2319 62.117 16.4884 61.885 16.6039 61.5795ZM77.5409 73.1465C77.2589 73.185 76.9894 73.3505 76.7459 73.639C76.7459 73.639 76.4434 73.989 76.3174 74.1375L78.2269 75.8715C78.3899 75.6765 78.7179 75.2855 78.7179 75.284C78.9064 75.063 79.0044 74.802 79.0044 74.5235V74.499C78.9979 74.123 78.8104 73.741 78.4859 73.4615C78.1899 73.2065 77.8639 73.0975 77.5409 73.1465Z" fill="#003278"/>
<path d="M50.0013 1.69531C23.3218 1.69531 1.69531 23.3248 1.69531 50.0013C1.69531 76.6783 23.3218 98.3063 50.0013 98.3063C76.6793 98.3063 98.3048 76.6783 98.3048 50.0013C98.3043 23.3248 76.6788 1.69531 50.0013 1.69531ZM11.6563 66.0913C11.6368 66.1198 10.9353 67.1913 10.9353 67.1913L10.1428 64.9343C10.1428 64.9343 12.8588 61.9378 12.9743 61.8088C12.9358 61.6948 12.8113 61.3473 12.7908 61.2868C12.2408 61.4908 10.2558 62.2293 10.2453 62.2203L9.46331 63.0408L8.46531 60.2568L8.69631 60.2708C8.69631 60.2708 9.49881 60.3158 9.50181 60.3248C9.50681 60.3238 11.8638 59.4633 11.9743 59.4218L12.4628 58.3408L12.6023 58.3983C12.6023 58.3983 13.4898 58.7703 13.4898 58.8078C13.5048 58.8013 14.9773 58.2718 14.9773 58.2718C14.9773 58.2718 15.7118 58.0063 15.7238 58.0128L16.3393 57.4208L16.5098 57.2563L17.6178 60.2738C18.0113 61.3458 18.0678 62.4503 17.7678 63.2283C17.5498 63.7933 17.1703 64.1798 16.6198 64.3833C15.7938 64.6808 14.8183 64.3128 14.1193 63.5088C13.9543 63.6843 11.7028 66.0423 11.6563 66.0913ZM24.8313 73.1978C24.8313 73.1978 23.3413 76.2663 23.3153 76.2613C23.3168 76.2648 23.4923 77.4498 23.4923 77.4498L23.3768 77.4933C23.3768 77.4933 22.5178 77.8303 22.5073 77.8033C22.4993 77.8138 21.6158 79.2833 21.6158 79.2833C21.6158 79.2833 21.0553 80.2193 21.0528 80.1948L20.7708 81.4708L18.5958 78.9843L19.5778 78.6868C19.6228 78.6048 20.1203 77.7343 20.2038 77.5878C20.0843 77.4508 18.5523 75.7103 18.4288 75.5708L17.2258 76.0493C17.1828 76.1453 16.7928 76.9713 16.7928 76.9713L15.1233 75.0543L15.5128 74.9888C16.0053 74.9143 16.2313 74.8823 16.3543 74.8773C16.3476 74.8741 16.3407 74.8711 16.3338 74.8683C16.3338 74.8683 18.9448 73.9913 19.0663 73.9498C19.1153 73.8488 19.5038 73.0253 19.5038 73.0253L19.6268 73.0548C19.6268 73.0548 20.6028 73.2948 20.6043 73.3163L23.8793 72.1728L24.0208 72.1238L24.8748 73.1063L24.8313 73.1978ZM39.2373 83.0403C39.2373 83.0403 38.5998 83.5428 38.5848 83.5388C38.5808 83.5448 38.1768 84.3758 38.1768 84.3758C38.1768 84.3758 37.5613 85.6378 37.5268 85.6378L37.7793 86.6698L37.6653 86.7238C37.6653 86.7238 36.8433 87.1033 36.8268 87.0768C36.8203 87.0918 35.2008 90.4058 35.2008 90.4058L34.2008 89.9003L32.9958 82.9293C32.4453 84.0358 30.9233 87.0958 30.9028 87.0958C30.9053 87.0988 31.0513 88.3258 31.0513 88.3258L28.6198 87.1188L28.8223 86.9698C28.8223 86.9698 29.4903 86.4803 29.5008 86.4928C29.5058 86.4848 29.9378 85.6118 29.9378 85.6118C29.9378 85.6118 30.6813 84.1088 30.7153 84.1143L30.4153 82.9883L31.4413 82.5963C31.4888 82.4958 31.8463 81.7663 31.8463 81.7663C31.8463 81.7663 32.4158 80.6033 32.4288 80.6238L32.3633 79.6248L32.3453 79.3618L34.4793 80.4058C34.4793 80.4058 35.3908 85.4313 35.5348 86.2198L36.0678 85.1283C36.0678 85.1283 37.1628 82.8933 37.1808 82.9063L37.0758 81.6998L39.4263 82.8913L39.2373 83.0403ZM37.6188 79.0628C37.9052 79.0804 38.1926 79.0582 38.4728 78.9968C38.7454 79.3052 39.0679 79.5655 39.4268 79.7668C38.8171 79.5507 38.2141 79.3159 37.6188 79.0628ZM54.7328 88.9003C54.7328 88.9003 54.3238 89.6288 54.3033 89.6288L54.2893 92.6473L53.9613 92.8113C53.3983 93.0913 52.9173 93.3313 51.2673 93.3153C48.9168 93.2948 46.8548 91.6703 46.4893 89.5283L45.8108 88.6363L45.9008 88.5413C45.9008 88.5413 46.5108 87.9068 46.5178 87.9208C46.5218 87.9128 46.6258 87.5283 46.6278 87.5188C47.2783 85.6213 49.2258 84.3098 51.3663 84.3298C52.4793 84.3398 53.1028 84.5108 53.8283 85.0033L53.9293 85.0728L53.8808 86.6808L53.6203 86.3578L53.4948 86.2028C53.1378 85.7758 52.3843 85.5293 51.3708 85.5078C49.9653 85.4743 49.1373 86.6028 48.8318 87.6533L48.7883 87.9133C48.8703 88.0118 49.4753 88.7303 49.4753 88.7303L49.3753 88.8288C49.3753 88.8288 48.7213 89.4813 48.7083 89.4903C48.9163 90.8033 49.7908 92.1348 51.2768 92.1473C51.8818 92.1523 52.0793 91.9923 52.2518 91.9398L52.2568 90.4458C52.2568 90.4458 52.2608 89.6803 52.2758 89.6803C52.2718 89.6703 51.7423 88.6503 51.7423 88.6503L54.8608 88.6728L54.7328 88.9003ZM65.4738 90.3453L65.4943 90.0903C65.4943 90.0903 65.5608 89.2578 65.5738 89.2553C65.5713 89.2478 64.6378 86.9583 64.5928 86.8468L63.5118 86.4493C63.5118 86.4493 63.9378 85.5398 63.9863 85.4323C63.9093 85.2478 63.0178 83.1688 63.0178 83.1293L62.0533 82.4243L67.5368 80.0418L67.7443 79.9523L68.4818 81.6988C68.4818 81.6988 67.0428 81.6208 66.9613 81.6143C66.8943 81.6453 65.1018 82.4168 64.8888 82.5078C64.9888 82.7423 65.6813 84.3483 65.7813 84.5843C65.7893 84.5818 65.8073 84.5738 65.8073 84.5738C65.8073 84.5738 67.1613 83.9863 67.1638 83.9913C67.1653 83.9913 67.9798 83.2363 67.9798 83.2363L68.7263 85.0353L68.5108 85.0468C68.5108 85.0468 67.6623 85.0958 67.6593 85.0893L66.2578 85.6928C66.3603 85.9418 67.2673 88.1063 67.3288 88.2538C67.5263 88.1663 68.0318 87.9458 68.0318 87.9458C68.0318 87.9458 69.3318 87.3753 69.3368 87.3893C69.3423 87.3853 70.3653 86.2043 70.3653 86.2043L71.0873 87.9008L65.4738 90.3453ZM83.6238 77.1488L79.5228 76.2048C79.4513 76.2868 79.2333 76.5333 79.1573 76.6218C79.6048 77.0003 81.2258 78.3773 81.2258 78.3898L82.3148 78.6708L80.3848 80.9083L80.2823 80.6993C80.2823 80.6993 79.9398 79.9968 79.9398 79.9708L77.9368 78.2498L76.7558 78.3538L76.7393 78.2048C76.7393 78.2048 76.6558 77.4833 76.6558 77.2803C76.6558 77.2483 76.6583 77.2303 76.6633 77.2303C76.6453 77.2138 74.9013 75.6928 74.9013 75.6688V75.6673C74.8963 75.6673 73.8278 75.3508 73.8278 75.3508L75.9078 72.8998C76.6448 72.0308 77.5773 71.4378 78.4018 71.3173C78.9993 71.2288 79.5223 71.3723 79.9683 71.7558C80.4118 72.1393 80.6443 72.7253 80.6443 73.3728C80.6443 73.6948 80.5553 74.0348 80.4353 74.3708L83.8913 75.2558L85.1953 75.3478L83.6238 77.1488ZM91.0363 63.9598C90.5593 65.4638 89.4398 66.2278 88.7988 66.2908L88.6388 66.3063L88.3338 65.5278L88.3513 65.3323L88.5413 65.3023C89.0833 65.2138 89.8078 64.8893 90.1788 63.8553C90.3543 63.2433 90.3288 62.6853 90.1018 62.2428C89.9193 61.8878 89.6158 61.6233 89.1743 61.4978C88.9128 61.4348 88.5038 61.5963 88.2123 61.8718C88.2123 61.8718 87.4533 62.7283 87.4403 62.7248C87.4403 62.7288 87.1223 63.8533 87.1223 63.8533L87.0043 63.8523C87.0043 63.8523 86.3578 63.8418 86.3503 63.8138C86.3373 63.8243 86.2388 63.9048 86.2453 63.8983L86.0068 64.1178C85.6453 64.4163 85.2298 64.6268 84.8333 64.7078C84.5093 64.7703 84.1733 64.6668 83.9478 64.5818C82.5128 64.0163 82.2368 62.2233 82.7038 60.8233C83.0503 59.7833 83.5603 59.0418 84.1428 58.7383L84.3453 58.6318L84.6803 59.3868L84.6738 59.5523L84.5533 59.6203C84.0778 59.8868 83.8043 60.2573 83.5453 60.9808C83.2298 61.8538 83.8853 62.4453 84.2698 62.5953C84.4528 62.6503 84.8478 62.6488 85.4443 62.0178C85.4443 62.0178 85.5253 61.9298 85.5393 61.9283L85.7993 60.8923C85.7993 60.8923 86.4613 60.8843 86.5713 60.8818C86.6328 60.8073 86.8033 60.6008 86.8173 60.5878L87.3483 60.0663C87.5098 59.9173 87.8968 59.6368 88.3333 59.5173L88.3343 59.5163C88.5958 59.4508 89.0113 59.4273 89.3568 59.5343C90.1363 59.7663 90.7403 60.2843 91.0568 60.9948C91.4093 61.7888 91.4028 62.8148 91.0363 63.9598ZM96.0918 50.7728H81.7113C81.5363 58.6228 78.4803 66.4203 72.4893 72.4103C63.8238 81.0768 51.3853 83.6328 40.4678 80.1308L40.7038 79.7838C40.0098 79.6123 39.1368 79.0258 38.6238 78.5373C37.4823 78.8283 36.8618 78.3023 36.0748 78.0703L36.0028 78.3118C33.0448 76.8313 30.2628 74.8798 27.7948 72.4123C26.6268 71.2438 25.6038 69.9903 24.6583 68.6988C24.9713 68.8858 25.3318 69.0848 25.6238 69.1888L25.3418 68.7128C25.3418 68.7128 24.5378 68.1833 23.8903 67.6563C23.3718 66.8794 22.8886 66.0794 22.4423 65.2588C23.3783 66.1098 24.0178 66.2573 24.7258 66.5933L24.5093 65.5803C23.9058 65.3903 22.7038 64.8748 21.8143 64.0003C19.7838 59.8543 18.6863 55.3663 18.5753 50.8473H3.90881C3.90581 50.6393 3.89281 50.4348 3.89281 50.2268C3.89281 50.1438 3.89581 50.0703 3.89681 49.9923C3.89581 49.9973 3.89281 49.9963 3.89281 50.0013C3.89281 49.7313 3.90881 49.4653 3.91331 49.1963C4.34631 24.1428 24.8458 3.89231 50.0013 3.89231C75.4248 3.89231 96.1083 24.5768 96.1083 50.0018C96.1083 50.0003 96.1043 50.0003 96.1043 49.9993C96.1048 50.0508 96.1083 50.1013 96.1083 50.1528C96.1078 50.3603 96.0953 50.5653 96.0918 50.7728Z" fill="#003278"/>
<path d="M16.6207 64.3841C17.1712 64.1806 17.5507 63.7941 17.7687 63.2291C18.0687 62.4506 18.0122 61.3466 17.6187 60.2746L16.5107 57.2571L16.3402 57.4216L15.7247 58.0136C15.7132 58.0076 14.9782 58.2726 14.9782 58.2726C14.9782 58.2726 13.5057 58.8021 13.4907 58.8086C13.4907 58.7711 12.6032 58.3991 12.6032 58.3991L12.4637 58.3416L11.9752 59.4226C11.8647 59.4641 9.50771 60.3246 9.50271 60.3256C9.49971 60.3166 8.69721 60.2716 8.69721 60.2716L8.46621 60.2576L9.46421 63.0416L10.2462 62.2211C10.2567 62.2301 12.2412 61.4911 12.7917 61.2876C12.8122 61.3481 12.9367 61.6956 12.9752 61.8096C12.8597 61.9381 10.1437 64.9351 10.1437 64.9351L10.9362 67.1921C10.9362 67.1921 11.6377 66.1201 11.6572 66.0921C11.7032 66.0431 13.9552 63.6851 14.1207 63.5106C14.8192 64.3136 15.7947 64.6816 16.6207 64.3841ZM14.7127 62.1941H14.7112C14.4583 62.0572 14.2651 61.8315 14.1687 61.5606L13.9017 60.8421C14.1517 60.7576 16.1007 60.1026 16.3422 60.0201C16.4112 60.2071 16.5667 60.6406 16.5667 60.6406C16.6382 60.8366 16.6727 61.0216 16.6727 61.1916C16.6727 61.3301 16.6497 61.4596 16.6037 61.5791C16.4882 61.8841 16.2317 62.1161 15.8652 62.2546C15.4652 62.3976 15.0422 62.3736 14.7127 62.1941ZM23.8797 72.1731C23.8797 72.1731 20.6147 73.3141 20.6047 73.3166C20.6032 73.2946 19.6272 73.0551 19.6272 73.0551L19.5042 73.0256C19.5042 73.0256 19.1157 73.8491 19.0667 73.9501L16.3342 74.8686L16.3547 74.8776C16.2317 74.8826 16.0057 74.9146 15.5132 74.9891L15.1237 75.0546L16.7932 76.9716C16.7932 76.9716 17.1832 76.1456 17.2262 76.0496L18.4292 75.5711C18.5527 75.7106 20.0847 77.4511 20.2042 77.5881C20.1207 77.7346 19.6232 78.6051 19.5782 78.6871L18.5962 78.9846L20.7712 81.4711L21.0532 80.1951C21.0562 80.2196 21.6162 79.2836 21.6162 79.2836C21.6162 79.2836 22.4997 77.8141 22.5077 77.8036C22.5177 77.8306 23.3772 77.4936 23.3772 77.4936L23.4927 77.4501C23.4927 77.4501 23.3172 76.2651 23.3157 76.2616C23.3417 76.2666 24.8317 73.1981 24.8317 73.1981L24.8757 73.1071L24.0217 72.1246L23.8797 72.1731ZM20.8487 76.3651L19.7202 75.0801C20.0357 74.9691 21.5282 74.4366 22.0692 74.2431C21.7847 74.7391 21.0047 76.0921 20.8487 76.3651ZM37.1807 82.9061C37.1627 82.8931 36.0677 85.1281 36.0677 85.1281L35.5347 86.2196C35.3907 85.4306 34.4792 80.4056 34.4792 80.4056L32.3452 79.3616L32.3632 79.6246L32.4287 80.6236C32.4157 80.6031 31.8462 81.7661 31.8462 81.7661C31.8462 81.7661 31.4887 82.4956 31.4412 82.5961L30.4152 82.9881L30.7152 84.1141C30.6817 84.1086 29.9377 85.6116 29.9377 85.6116C29.9377 85.6116 29.5057 86.4846 29.5007 86.4926C29.4902 86.4796 28.8222 86.9696 28.8222 86.9696L28.6197 87.1186L31.0512 88.3256C31.0512 88.3256 30.9052 87.0986 30.9027 87.0956C30.9232 87.0956 32.4452 84.0356 32.9957 82.9291L34.2007 89.9001L35.2007 90.4056C35.2007 90.4056 36.8202 87.0916 36.8267 87.0766C36.8432 87.1036 37.6652 86.7236 37.6652 86.7236L37.7792 86.6696L37.5267 85.6376C37.5612 85.6376 38.1767 84.3756 38.1767 84.3756C38.1767 84.3756 38.5807 83.5446 38.5847 83.5386C38.6002 83.5421 39.2372 83.0401 39.2372 83.0401L39.4257 82.8911L37.0752 81.6996L37.1807 82.9061ZM52.2762 89.6801C52.2607 89.6801 52.2572 90.4456 52.2572 90.4456L52.2522 91.9396C52.0802 91.9921 51.8827 92.1521 51.2772 92.1471C49.7912 92.1346 48.9162 90.8036 48.7087 89.4901C48.7217 89.4811 49.3757 88.8286 49.3757 88.8286L49.4757 88.7301C49.4757 88.7301 48.8707 88.0116 48.7887 87.9131L48.8322 87.6531C49.1377 86.6026 49.9657 85.4741 51.3712 85.5076C52.3842 85.5296 53.1382 85.7756 53.4952 86.2026C53.4937 86.1996 53.6207 86.3576 53.6207 86.3576L53.8812 86.6806L53.9297 85.0726L53.8287 85.0031C53.1032 84.5106 52.4797 84.3401 51.3667 84.3296C49.2262 84.3091 47.2787 85.6206 46.6282 87.5186C46.6257 87.5276 46.5217 87.9126 46.5182 87.9206C46.5117 87.9066 45.9012 88.5411 45.9012 88.5411L45.8112 88.6361L46.4897 89.5281C46.8552 91.6696 48.9172 93.2946 51.2677 93.3151C52.9182 93.3311 53.3987 93.0911 53.9617 92.8111L54.2897 92.6471L54.3037 89.6286C54.3242 89.6286 54.7332 88.9001 54.7332 88.9001L54.8612 88.6731L51.7427 88.6506C51.7432 88.6501 52.2727 89.6701 52.2762 89.6801ZM69.3367 87.3896C69.3317 87.3756 68.0317 87.9461 68.0317 87.9461C68.0317 87.9461 67.5262 88.1666 67.3287 88.2541C67.2672 88.1066 66.3602 85.9421 66.2577 85.6931L67.6592 85.0896C67.6617 85.0956 68.5107 85.0471 68.5107 85.0471L68.7262 85.0356L67.9797 83.2366C67.9797 83.2366 67.1652 83.9916 67.1637 83.9916C67.1612 83.9866 65.8072 84.5741 65.8072 84.5741L65.7812 84.5846C65.6812 84.3486 64.9892 82.7431 64.8887 82.5081C65.1017 82.4171 66.8942 81.6451 66.9612 81.6146C67.0432 81.6211 68.4817 81.6991 68.4817 81.6991L67.7442 79.9526L67.5367 80.0421L62.0532 82.4246L63.0177 83.1296C63.0177 83.1696 63.9092 85.2481 63.9862 85.4326C63.9372 85.5406 63.5117 86.4496 63.5117 86.4496L64.5927 86.8471C64.6377 86.9586 65.5712 89.2481 65.5737 89.2556C65.5607 89.2576 65.4942 90.0906 65.4942 90.0906L65.4737 90.3456L71.0862 87.9016L70.3642 86.2051C70.3652 86.2046 69.3417 87.3856 69.3367 87.3896ZM80.4367 74.3711C80.5572 74.0351 80.6457 73.6951 80.6457 73.3731C80.6457 72.7256 80.4132 72.1396 79.9697 71.7561C79.5232 71.3726 79.0002 71.2291 78.4032 71.3176C77.5782 71.4381 76.6462 72.0311 75.9092 72.9001L73.8292 75.3511C73.8292 75.3511 74.8972 75.6676 74.9027 75.6676V75.6691C74.9027 75.6931 76.6467 77.2141 76.6647 77.2306C76.6597 77.2306 76.6572 77.2486 76.6572 77.2806C76.6572 77.4836 76.7407 78.2051 76.7407 78.2051L76.7572 78.3541L77.9382 78.2501L79.9412 79.9711C79.9412 79.9971 80.2837 80.6996 80.2837 80.6996L80.3862 80.9086L82.3162 78.6711L81.2272 78.3901C81.2272 78.3771 79.6062 77.0001 79.1587 76.6221C79.2342 76.5336 79.4522 76.2871 79.5242 76.2051C79.6937 76.2436 83.6252 77.1491 83.6252 77.1491L85.1977 75.3486L83.8937 75.2566L80.4367 74.3711ZM79.0047 74.5236C79.0047 74.8021 78.9067 75.0631 78.7182 75.2841C78.7182 75.2856 78.3902 75.6766 78.2272 75.8716L76.3177 74.1376C76.4432 73.9891 76.7462 73.6391 76.7462 73.6391C76.9897 73.3506 77.2592 73.1851 77.5412 73.1466C77.8647 73.0976 78.1902 73.2071 78.4862 73.4621C78.8107 73.7416 78.9982 74.1236 79.0047 74.4996V74.5236ZM89.3567 59.5341C89.0117 59.4276 88.5962 59.4506 88.3342 59.5161L88.3332 59.5171C87.8972 59.6366 87.5097 59.9171 87.3482 60.0661L86.8172 60.5876C86.734 60.6846 86.652 60.7826 86.5712 60.8816C86.3139 60.8856 86.0566 60.8891 85.7992 60.8921C85.7992 60.8921 85.5492 61.8846 85.5392 61.9281C85.5252 61.9296 85.4442 62.0176 85.4442 62.0176C84.8477 62.6486 84.4527 62.6501 84.2697 62.5951C83.8852 62.4451 83.2297 61.8536 83.5452 60.9806C83.8042 60.2576 84.0777 59.8866 84.5532 59.6201L84.6737 59.5521L84.6802 59.3866L84.3452 58.6316L84.1427 58.7381C83.5602 59.0421 83.0502 59.7836 82.7037 60.8231C82.2367 62.2236 82.5127 64.0161 83.9477 64.5816C84.1732 64.6661 84.5092 64.7701 84.8332 64.7076C85.2297 64.6266 85.6447 64.4161 86.0067 64.1176L86.2452 63.8981C86.2387 63.9046 86.3377 63.8241 86.3502 63.8136C86.3577 63.8416 87.0042 63.8521 87.0042 63.8521L87.1222 63.8531C87.1222 63.8531 87.4402 62.7286 87.4402 62.7246C87.4532 62.7286 88.2122 61.8716 88.2122 61.8716C88.5032 61.5961 88.9127 61.4346 89.1742 61.4976C89.6152 61.6231 89.9192 61.8876 90.1017 62.2426C90.3282 62.6851 90.3542 63.2431 90.1787 63.8551C89.8077 64.8891 89.0832 65.2141 88.5412 65.3021L88.3512 65.3321L88.3337 65.5276L88.6387 66.3061L88.7987 66.2906C89.4397 66.2276 90.5597 65.4636 91.0362 63.9596C91.4027 62.8146 91.4092 61.7886 91.0567 60.9946C90.7402 60.2846 90.1367 59.7666 89.3567 59.5341ZM16.9102 25.0736C16.9192 25.0801 17.5682 24.3096 17.7877 24.0461C17.9887 24.2121 19.3992 25.3721 19.4827 25.4416C19.4967 25.5506 19.6022 26.4751 19.6022 26.4751C19.6022 26.4751 20.5317 26.4331 20.6382 26.4276L22.6927 28.1561C22.6927 28.1871 23.0312 28.9181 23.0312 28.9181L23.1337 29.1386L25.0402 26.8571C25.0402 26.8571 23.9422 26.6881 23.9387 26.6866C23.9387 26.6596 21.9202 24.9566 21.8872 24.9286C21.8897 24.9286 21.8912 24.9221 21.8912 24.9106C21.8912 24.7756 21.7562 24.0236 21.7562 24.0236L21.7307 23.8831C21.7307 23.8831 20.8232 23.9781 20.7127 23.9886C20.6227 23.9141 19.2202 22.7331 19.0222 22.5661C19.1762 22.3776 19.8557 21.5556 19.8587 21.5506C19.8662 21.5636 20.9487 21.0786 20.9487 21.0786L21.1817 20.9746L19.7112 19.8241L19.6177 19.9396L15.1497 25.2701L16.5672 26.4371L16.9102 25.0736ZM30.3277 15.9061C30.2842 16.0176 29.9342 16.9296 29.9342 16.9296C29.9342 16.9296 30.9062 17.2101 31.0202 17.2436L32.2077 19.6476C32.1922 19.6491 32.1867 20.4036 32.1867 20.4036L32.1842 20.6601L37.5082 17.8646L36.7027 16.2486C36.7027 16.2486 35.8177 17.4361 35.8177 17.4386C35.8087 17.4271 34.1122 18.3246 33.7562 18.5131C33.6332 18.2741 32.5817 16.2191 32.4637 15.9866C32.6892 15.8686 33.9152 15.2261 33.9202 15.2251C33.9202 15.2341 34.6792 15.1341 34.6792 15.1341L34.8917 15.1051L34.1047 13.5246C34.1047 13.5246 33.3992 14.2776 33.3962 14.2786C33.3937 14.2721 32.2807 14.8521 31.9562 15.0201C31.8392 14.7956 31.0237 13.2221 30.9047 12.9966C31.1457 12.8711 33.0567 11.8796 33.0617 11.8781C33.0632 11.8931 34.2247 11.8696 34.2247 11.8696L34.4707 11.8646L33.6027 10.1846L33.4667 10.2576L28.2132 13.0181L29.1597 13.6066C29.1607 13.6481 30.1712 15.6026 30.3277 15.9061ZM63.2637 17.2386L64.2447 16.2576C64.4207 16.3396 66.6352 17.3846 66.8132 17.4696C66.7927 17.6491 66.6732 18.7181 66.6622 18.8236C66.5822 18.8901 65.9307 19.4441 65.9307 19.4441L68.7212 20.7521L68.5017 19.5866C68.5107 19.5866 68.8782 16.9106 68.8852 16.8706C68.9092 16.8911 69.6662 16.2126 69.6662 16.2126L69.7727 16.1161C69.7727 16.1161 69.0042 15.1391 69.0007 15.1366C69.0367 15.1341 69.1992 11.5871 69.1992 11.5871L69.2057 11.4846L68.1082 10.9591L68.0312 11.0291C68.0312 11.0291 65.3482 13.5091 65.3397 13.5156C65.3357 13.4936 64.3212 13.6506 64.3212 13.6506L64.1907 13.6711L64.1967 14.7021C64.0992 14.7911 62.0807 16.6056 62.0807 16.6056C62.1012 16.5901 61.3552 17.0556 61.3552 17.0556L61.1167 17.2056L63.2352 18.1996C63.2352 18.1991 63.2587 17.3441 63.2637 17.2386ZM67.2247 13.4391C67.1552 14.0341 66.9422 15.8881 66.9052 16.2141C66.3189 15.9368 65.7324 15.6598 65.1457 15.3831C65.3972 15.1471 66.7872 13.8491 67.2247 13.4391ZM77.9262 29.0476C78.5967 29.2581 79.3007 29.1811 79.9602 28.8246C80.2782 28.6581 80.5537 28.3466 80.6757 28.1321C80.9167 27.7221 80.9807 27.2306 80.9822 27.0756L80.9962 26.3246C80.9962 26.3101 80.9702 26.0131 80.9627 25.9116C81.0412 25.8296 81.4897 25.3731 81.4897 25.3731L80.9687 24.4846C80.9727 24.4821 80.9737 24.4576 80.9737 24.4296L80.9722 24.2536C80.9722 23.5876 81.1502 23.1406 81.4822 22.9971C81.8842 22.8191 82.7982 22.8421 83.1917 23.6946C83.5262 24.4171 83.5932 24.8926 83.4377 25.4491L83.4002 25.5836L84.1737 25.8851L84.2252 25.7286C84.4867 24.9081 84.0652 23.8386 83.7907 23.2731C83.1497 21.9691 81.7197 20.9071 80.3297 21.5046C80.1142 21.5946 79.8157 21.7576 79.6347 22.0216C79.4127 22.3461 79.2667 22.7821 79.2232 23.2476L79.2027 23.5736C79.2027 23.5571 79.1872 23.7211 79.1847 23.7416C79.1592 23.7251 78.7127 24.1531 78.7127 24.1531L78.6257 24.2351C78.6257 24.2351 79.1757 25.2366 79.1772 25.2421C79.1757 25.2421 79.1757 25.2536 79.1757 25.2741C79.1757 25.4641 79.2262 26.4101 79.2262 26.4101C79.2122 26.8371 79.0207 27.2706 78.7707 27.4286C78.4517 27.6346 78.0412 27.6941 77.6412 27.5931C77.2642 27.4981 76.7232 27.2171 76.2897 26.4221C75.8047 25.3746 76.1047 24.5986 76.4407 24.1346L76.5537 23.9791L75.7407 23.6241L75.6662 23.7136C75.2022 24.2841 75.0587 25.5911 75.7162 26.8911C76.2947 28.0306 77.0592 28.7771 77.9262 29.0476ZM47.9292 15.0006C48.0087 14.8996 49.4347 13.0556 49.6552 12.7711L51.1902 15.0576C51.1887 15.0591 51.1887 15.0636 51.1887 15.0726C51.1887 15.1701 51.2492 15.6971 51.2492 15.6971L51.2647 15.8346L54.2052 15.8306L53.1332 14.7791C53.1332 14.7741 51.4957 12.3456 51.2212 11.9376C51.2982 11.8146 51.5942 11.3466 51.5942 11.3466L51.0992 10.7916C51.2377 10.6046 53.0822 8.1336 53.0822 8.1336L53.9337 7.1501L51.2882 7.1421L51.3792 7.3561C51.3792 7.3561 51.5892 7.8461 51.6432 7.9741L50.0352 10.1081C49.8312 9.7966 48.6142 7.9306 48.6092 7.9231C48.6122 7.9231 48.6122 7.9176 48.6122 7.9076C48.6122 7.8086 48.5532 7.2791 48.5532 7.2791L48.5377 7.1416L45.7937 7.1496L46.6682 8.1496C46.6682 8.1521 48.1927 10.4731 48.4547 10.8691C48.3817 10.9921 48.0812 11.4781 48.0812 11.4781L48.6532 12.0306C48.5017 12.2321 46.5272 14.8401 46.5272 14.8416C46.5232 14.8416 45.7692 15.5546 45.7692 15.5546L45.4832 15.8256L48.1117 15.7961C48.1112 15.7961 47.9547 15.1146 47.9292 15.0006ZM85.2097 40.2556L84.0787 43.7361L87.0407 41.5841L90.0017 43.7361L88.8692 40.2556L91.8342 38.1021H88.1717L87.0407 34.6221L85.9097 38.1021H82.2477L85.2097 40.2556ZM9.69721 43.7361L12.6557 41.5841L15.6192 43.7361L14.4882 40.2531L17.4477 38.1021H13.7882L12.6557 34.6221L11.5257 38.1021H7.86621L10.8272 40.2531L9.69721 43.7361Z" fill="white"/>
<path d="M46.4634 18.7004C46.7064 18.7929 47.4229 19.0789 47.5264 19.2524L47.8944 19.1974C47.8944 19.1974 47.4444 18.8329 47.1224 18.6084C47.0869 18.6114 47.0524 18.6169 47.0174 18.6199C46.8199 18.6399 46.6224 18.6624 46.4264 18.6854L46.4634 18.7004ZM44.4269 18.9854C44.4319 18.9864 44.4374 18.9899 44.4419 18.9914C44.9544 19.1279 45.4324 19.4299 45.9474 19.6824L46.4449 19.6374C46.4449 19.6374 45.9819 19.2394 45.3119 18.8654C45.2939 18.8549 45.2804 18.8454 45.2624 18.8359C44.9819 18.8804 44.7049 18.9354 44.4269 18.9854ZM41.4529 19.6794L41.4729 19.6829C41.7219 19.7229 42.2019 19.8234 42.3839 20.0294C42.9454 19.9304 43.3354 20.2129 43.6919 20.3949L44.5329 20.1269C44.5329 20.1269 43.4404 19.5894 43.0429 19.5804C42.8709 19.4994 42.7644 19.4344 42.6369 19.3984C42.6159 19.3934 42.5989 19.3814 42.5774 19.3779C42.1994 19.4714 41.8274 19.5729 41.4529 19.6794ZM38.9449 20.5079C38.9524 20.5089 38.9759 20.5154 38.9869 20.5179C39.1444 20.5549 39.6664 20.6854 39.9349 20.9169C40.5219 20.8169 41.1004 21.1069 41.5224 21.3749L42.3689 21.0764C42.2754 20.9214 41.1814 20.4454 40.5694 20.4339C40.3644 20.2719 40.1504 20.2179 39.9614 20.1774C39.9459 20.1739 39.9284 20.1674 39.9124 20.1644C39.5889 20.2729 39.2664 20.3869 38.9449 20.5079ZM36.2789 21.6504C36.2979 21.6504 36.3354 21.6469 36.3834 21.6419C36.6929 21.6094 37.5089 21.5014 37.6114 21.7374C38.2424 21.6774 38.9219 22.0604 39.3319 22.3194L40.2344 22.0884C39.7484 21.6514 38.8599 21.3064 38.3499 21.3319C38.1499 21.0314 37.7454 21.1534 37.4564 21.1434C37.4364 21.1424 37.4129 21.1464 37.3944 21.1434L36.2789 21.6504ZM37.1754 23.7264L37.9639 23.1279C37.3459 22.7929 36.3789 22.6094 35.8739 22.6339C35.6209 22.5449 35.6569 22.4634 35.3659 22.4274L34.2824 23.0174C34.4194 23.0249 35.3364 23.0429 35.4584 23.3124C36.0839 23.2589 36.7749 23.4769 37.1754 23.7264ZM32.5869 25.4784C33.3229 25.3409 34.4024 25.0489 35.4569 25.2854L36.2489 24.5829C35.0579 24.3739 33.7949 24.4344 33.1549 24.6024C32.9999 24.3639 32.6409 24.1189 32.6409 24.1189L31.8869 24.7539C32.2459 24.8664 32.3674 25.1699 32.5869 25.4784ZM30.4689 27.8514C31.0779 27.5489 32.4179 27.3344 33.7734 27.5184L34.4724 26.6179C32.4179 26.4709 31.5739 26.7319 30.9344 27.0424C30.7149 26.6704 30.3934 26.4534 30.3934 26.4534L29.7689 27.0289C30.1289 27.1414 30.2444 27.5489 30.4689 27.8514ZM32.5204 28.8674C30.3934 28.9149 29.2224 29.1019 29.0669 29.5944C28.8539 29.2209 28.4669 28.8429 28.4669 28.8429L27.9729 29.6214C28.4269 29.8704 28.3834 30.1639 28.6014 30.4714C29.2144 30.1639 30.4644 29.5789 31.8254 29.7674L32.5204 28.8674ZM27.5679 32.2999C27.3524 31.7849 26.7804 31.1679 26.7804 31.1679L26.4114 32.0524C26.7384 32.2999 26.9424 32.9054 27.1679 33.2129C27.7779 32.8974 28.5654 32.2999 29.9169 32.4959L30.5579 31.4494C28.8334 31.4499 27.7219 31.8014 27.5679 32.2999ZM25.8009 35.7794C26.4114 35.4779 27.3279 34.9124 28.6939 35.0944L29.2584 34.0569C27.5974 34.0569 26.4499 34.4144 26.3009 34.9109C26.0294 34.2299 25.4164 33.6454 25.4164 33.6454L25.0484 34.6259C25.5059 34.8749 25.5799 35.4804 25.8009 35.7794ZM25.0479 38.0474C24.7399 37.4384 24.0679 36.6789 24.0679 36.6789L23.7654 37.6974C24.2179 37.9514 24.4284 38.5564 24.6489 38.8679C25.2604 38.5564 26.0094 38.0514 27.3699 38.2384L27.8044 37.2574C25.7389 37.3844 25.2029 37.5579 25.0479 38.0474ZM23.5104 41.7459C24.1154 41.4344 25.1339 40.8779 26.4904 41.0584L26.8304 40.0454C24.8364 40.1649 23.9644 40.3609 23.8054 40.8599C23.5859 40.4879 22.8249 39.5594 22.8249 39.5594L22.6209 40.5779C23.0794 40.8314 23.2849 41.4344 23.5104 41.7459ZM23.0704 44.2529C22.8534 43.8789 21.9149 42.5784 21.9149 42.5784L21.7019 43.6644C22.1519 44.0839 22.4894 44.8609 22.7099 45.1749C23.3204 44.8634 24.2769 44.0134 25.6264 44.2054L25.8394 43.2974C23.8654 43.4449 23.5514 43.6644 23.0704 44.2529ZM22.4794 47.5689C22.2409 47.1984 21.0364 45.9494 21.0364 45.9494L20.8774 47.0019C21.6789 47.6919 22.0094 48.3524 22.2434 48.6394C22.5079 48.1149 23.5049 47.6224 24.8694 47.7359L25.0384 46.7454C23.4209 46.8384 22.6924 47.1049 22.4794 47.5689ZM21.9024 51.3689C21.6359 50.6614 20.4919 49.5209 20.4919 49.5209L20.4224 50.5354C20.8229 50.7134 21.5614 51.9509 21.7844 52.2549C21.8344 52.1984 21.8999 52.0139 22.0359 51.8469C22.2779 51.5549 22.9769 51.1404 24.4789 51.2034L24.5644 50.2734C22.8334 50.2939 22.2769 50.7169 22.1309 50.8879C21.9934 51.0079 21.9399 51.2389 21.9024 51.3689ZM24.2669 58.0609L24.2369 57.0674C22.9329 56.4824 22.2624 56.5864 21.7839 56.8694C21.5619 56.4899 20.2529 56.0089 20.2529 56.0089L20.3144 57.0079C20.8454 57.1334 21.4919 57.4604 21.7174 57.7669C22.3259 57.4554 23.1914 57.4854 24.2669 58.0609ZM21.6304 55.1094C21.9129 54.6364 22.2294 54.3909 24.2544 54.8184L24.2649 53.8529C21.8774 53.7364 21.9104 53.9519 21.8349 54.2584C21.6309 53.8784 20.2564 52.7029 20.2564 52.7029L20.2769 53.8184C20.7239 54.0859 21.4239 54.7914 21.6304 55.1094ZM21.9434 60.5324C22.0599 60.2194 22.4409 60.3924 22.9334 60.6104C23.3719 60.8134 23.6979 61.0449 24.2004 61.3209L24.1749 60.3209C23.0744 59.6139 21.9974 59.0754 21.8434 59.5669C21.6284 59.1949 20.4844 58.6769 20.4844 58.6769L20.7409 59.7869C21.3334 59.9409 21.7214 60.2219 21.9434 60.5324ZM22.1189 62.1389C21.8969 61.7339 20.9929 61.2374 20.9929 61.2374L21.1324 62.2444C21.6119 62.4409 21.9814 62.7139 22.2074 63.0499C22.7279 62.9859 23.1844 63.1859 24.2999 63.9844L24.2179 63.0384C23.0784 62.0854 22.5244 62.1389 22.1189 62.1389ZM68.7209 54.4549C68.3634 54.2049 67.7534 53.8589 66.6279 52.6224L65.7944 53.1304C66.1704 53.4139 67.8694 55.3759 68.6644 55.0799C68.6644 55.0799 68.3039 57.5084 68.3679 58.7639L69.2799 58.1804C69.2489 57.5199 69.2929 54.7344 69.4569 54.0849C69.4919 54.0499 68.9464 54.6129 68.7209 54.4549ZM70.5264 53.3179L71.1104 52.8354C71.1924 54.4494 71.3214 55.9819 71.1444 56.7199L71.8499 56.1724C71.9924 54.9914 71.9549 53.6194 71.7859 52.3659L71.1304 52.7884C70.2784 51.5414 69.7079 50.9834 69.2134 50.6459L68.6034 51.1009C68.8594 51.1749 69.5489 51.8624 70.5264 53.3179ZM39.4154 76.9719C38.2749 77.2614 37.2184 76.7514 36.4334 76.5179L36.2154 77.1874C37.3209 77.7594 38.3864 77.6724 39.1929 77.4989C39.6369 78.1294 40.0109 78.4849 40.9934 78.8504L41.3449 78.3409C40.3004 78.2144 39.8899 77.6784 39.4154 76.9719ZM40.2224 75.1444C39.0744 75.4339 37.8649 75.0149 37.0739 74.7829L36.7449 75.5379C37.9399 75.9469 39.0489 76.0319 39.8599 75.8629C40.2714 76.5409 40.7189 77.1859 41.7054 77.5539L42.0679 76.9104C41.2504 76.5759 40.4884 76.1409 40.2224 75.1444ZM41.5109 72.7314L41.3894 72.9224C40.2479 73.2159 38.8619 72.9619 38.0734 72.7314L37.6679 73.4479C38.7704 73.7904 39.7314 73.8444 40.9584 73.7069L41.0204 73.5939C41.4669 74.4114 41.5814 74.8989 42.7304 75.5724L43.2884 74.9299C42.5649 74.6384 41.6839 73.4724 41.5109 72.7314Z" fill="#003278"/>
<path d="M42.638 71.264L42.5745 71.355C41.476 71.5645 40.174 70.9925 39.3885 70.7625L38.937 71.441C40.0425 72.02 41.1195 72.064 42.089 72.064L42.1475 71.98C42.5515 72.8745 42.9405 73.8015 43.92 74.172L44.4765 73.5255C43.756 73.2375 42.8125 72.006 42.638 71.264ZM40.88 68.8205L40.5555 69.1685C40.6555 69.2165 40.7675 69.267 40.88 69.317V68.8205ZM59.642 65.129L58.6445 64.2005L59.44 63.867C58.8475 63.2465 58.8705 61.4125 58.932 60.42L58.657 60.583C57.5495 60.4005 56.3525 59.2975 55.798 58.5455L55.73 58.574V52.7855C55.73 50.698 58.6205 49.8975 58.6205 49.8975C58.6205 49.8975 57.835 49.586 57.0825 49.0205L55.9095 49.3515C55.8825 49.359 53.3345 50.0965 53.3345 51.8275V62.039C53.3345 62.732 53.6195 63.1945 55.0075 63.1945H55.727C55.731 63.1268 55.732 63.0589 55.73 62.991V59.9C56.4505 60.533 57.208 61.052 57.7815 61.116L58.033 60.97C58.042 62.2135 57.9365 62.949 58.2335 63.8195L57.6215 63.2495V69.4415H40.932L43.5535 71.9205H44.6905C44.8585 72.195 45.053 72.407 45.293 72.4745L45.8365 71.9205H59.642V65.129Z" fill="#003278"/>
<path d="M62.7246 58.5581L62.4526 58.7181C61.3426 58.5391 60.1461 57.4366 59.5911 56.6806L58.5576 57.1101C59.4936 58.0871 60.7351 59.1551 61.5751 59.2526L61.8271 59.1051C61.8381 60.5726 61.6501 61.3171 62.2031 62.4326L63.2356 62.0036C62.6401 61.3856 62.6656 59.5466 62.7246 58.5581ZM66.0796 60.5226L67.1071 60.0931C66.5146 59.4761 66.5416 57.6361 66.6006 56.6471L66.5651 56.5846C66.1981 56.7131 65.7326 56.6016 65.3161 56.2476C64.9031 55.8936 63.5281 54.2636 63.5281 54.2636L62.3946 54.8821C63.0511 55.5591 65.2006 57.2671 65.6401 57.2811L65.7026 57.2341C65.7086 58.6711 65.5286 59.4176 66.0796 60.5226ZM73.1041 51.2266C72.6816 50.4911 71.8181 49.5076 71.1626 49.0546L70.5726 49.5776C71.1626 49.9276 72.3731 51.0516 72.7356 51.9306L73.1281 51.5146C73.2446 52.9176 73.2366 54.4941 73.0751 55.2286L73.8011 54.6506C73.9176 53.3861 73.8411 51.9226 73.6151 50.8521L73.1041 51.2266ZM74.9226 49.8086C75.1046 50.2791 75.2461 50.8526 75.1036 53.6941L75.7946 53.0491C75.8156 50.9176 75.7001 50.3356 75.4701 49.2636L74.9226 49.8086ZM76.6486 47.9881C76.9691 49.0636 77.1691 50.8946 76.9926 51.9551L77.6311 51.1141C77.7386 49.9141 77.3631 48.4161 77.1411 47.3451L76.6486 47.9881ZM77.9951 46.0371L77.7461 46.4631C78.4411 47.3546 78.7076 48.3576 78.7876 49.6971L79.2786 48.9436C79.2636 47.5436 78.3411 45.7176 77.9951 46.0371ZM78.8516 44.6076L78.7166 44.7736L78.8186 44.6076C78.4476 43.8621 77.9976 43.0561 77.2886 42.5636L76.9036 43.0776C77.4861 43.4381 78.0921 44.3101 78.4616 45.1896L78.6516 44.8786C78.9711 45.1556 79.5471 45.5756 79.9231 47.7531L80.2131 46.9951C79.8956 44.9256 78.9311 44.1456 78.8516 44.6076ZM79.6416 42.9736L79.5761 43.1531C79.2096 42.4186 78.9701 41.9131 78.1436 41.1576L77.8576 41.6141C78.6321 42.3051 78.9746 42.6876 79.3361 43.6991L79.5176 43.3131L79.4966 43.3721C79.9316 43.7326 80.4241 44.3096 80.7216 45.8971L80.9471 44.9951C80.8596 43.8506 79.7941 42.5801 79.6416 42.9736ZM72.8296 47.4091L72.2421 47.9321C72.8286 48.2806 74.0401 49.4046 74.4021 50.2851L74.8866 49.7711C74.5171 49.0261 73.5426 47.9001 72.8296 47.4091ZM74.6046 45.7216L74.0476 46.1706C74.4531 46.4411 75.8636 47.6261 76.2276 48.5096L76.6536 47.9221C76.2841 47.1716 75.3441 46.2216 74.6046 45.7216ZM77.4721 46.8196L77.8206 46.2976C77.4541 45.5486 76.8346 44.5996 76.1226 44.1061L75.6381 44.6221C76.2201 44.9781 77.1026 45.9381 77.4721 46.8196ZM79.9316 42.0541L80.1496 41.6041C79.7801 40.8496 79.5856 40.6486 78.7596 39.8136L78.6056 40.2736C79.1811 40.7691 79.5681 41.1786 79.9316 42.0541ZM80.6151 41.6886L80.5426 41.6076L80.3071 41.3436L80.0931 41.8271C80.3286 41.9961 80.5636 42.2451 80.8071 42.6101C80.8291 42.6431 80.8496 42.6606 80.8711 42.6951C80.7922 42.358 80.7068 42.0224 80.6151 41.6886ZM79.8081 39.1456C79.7811 39.1116 79.7426 39.0701 79.7116 39.0336C79.6016 38.9041 79.4706 38.7611 79.2826 38.5751L79.1566 39.0056C79.5616 39.4446 79.9521 39.9156 80.2756 40.5971C80.2971 40.6416 80.3201 40.6776 80.3406 40.7241C80.1771 40.1933 79.9995 39.6669 79.8081 39.1456ZM63.8111 47.1246H67.9246V33.5456L65.6446 31.4141V44.7406H61.2931L63.8111 47.1246ZM56.1386 38.2016C57.7301 38.3376 58.8786 38.7591 59.6936 39.3756C58.3721 38.0541 56.2416 37.3321 53.3341 37.3241V45.8946C53.3341 47.5046 55.9221 48.5356 55.9486 48.5461L57.0131 48.9636C56.3496 48.4486 55.7296 47.7406 55.7296 46.8516V38.1766L56.1386 38.2016ZM39.7526 46.1446C39.7526 41.4726 40.2096 38.5271 45.1656 38.0326V37.2981H45.0971C39.7911 37.2981 37.6261 39.1386 37.6211 43.7016L37.6151 44.7406H32.3716L34.7621 46.9826H39.7481L39.7526 46.1446Z" fill="#003278"/>
<path d="M33.1792 43.8924H36.8072C36.8292 43.6539 36.8497 43.4149 36.8497 43.4149L36.7782 43.6514C36.7782 38.6709 39.3432 36.4499 45.0977 36.4499H46.0147V45.8954C46.0147 47.5144 44.8412 48.4369 43.9987 48.9184C44.8482 49.3549 46.0147 50.2089 46.0147 51.8274V61.9449C46.0147 63.2589 45.1107 64.0429 43.5937 64.0429H41.7292V68.5914H56.7712V64.0429H55.0077C53.3332 64.0429 52.4857 63.3684 52.4857 62.0389V51.8274C52.4857 50.2254 53.8477 49.3449 54.7952 48.9024C53.8592 48.3794 52.4857 47.3869 52.4857 45.8954V36.4679L52.9337 36.4709L53.3157 36.4714C58.8937 36.4714 62.0922 38.9924 62.0922 43.3919L62.0882 43.8929H64.7962V32.2109H33.1797L33.1792 43.8924Z" fill="#C0111F"/>
</g>
<defs>
<clipPath id="clip0_107_551">
<rect width="100" height="100" fill="white"/>
</clipPath>
</defs>
</svg>
