<svg width="24" height="24" viewBox="0 0 24 24" fill="none" xmlns="http://www.w3.org/2000/svg">
<path d="M12.0124 2.25006C12.7464 2.25852 13.4775 2.34332 14.1939 2.5031C14.5067 2.57285 14.7406 2.83357 14.7761 3.15202L14.9463 4.67887C15.0233 5.37992 15.6152 5.9109 16.3209 5.91164C16.5105 5.91194 16.6982 5.87244 16.8734 5.79489L18.2741 5.17962C18.5654 5.05165 18.9057 5.12142 19.1232 5.35368C20.1354 6.4347 20.8892 7.73121 21.3279 9.14564C21.4225 9.45064 21.3137 9.78209 21.0566 9.97156L19.8151 10.8867C19.461 11.1469 19.2518 11.5601 19.2518 11.9995C19.2518 12.439 19.461 12.8522 19.8159 13.113L21.0585 14.0284C21.3156 14.2178 21.4246 14.5493 21.3299 14.8544C20.8914 16.2685 20.138 17.565 19.1264 18.6462C18.9091 18.8784 18.569 18.9483 18.2777 18.8207L16.8714 18.2046C16.4691 18.0285 16.007 18.0543 15.6268 18.274C15.2466 18.4938 14.9935 18.8813 14.9452 19.3178L14.7761 20.8445C14.7413 21.1593 14.5124 21.4182 14.2043 21.4916C12.7558 21.8362 11.2467 21.8362 9.79828 21.4916C9.49015 21.4182 9.26129 21.1593 9.22643 20.8445L9.0576 19.32C9.00802 18.8843 8.75459 18.498 8.37467 18.279C7.99475 18.06 7.53345 18.0344 7.13244 18.2094L5.72582 18.8257C5.43446 18.9534 5.09428 18.8833 4.87703 18.651C3.86487 17.5685 3.11144 16.2706 2.67344 14.8549C2.57911 14.5499 2.68811 14.2187 2.94509 14.0294L4.18842 13.1134C4.54256 12.8532 4.75172 12.44 4.75172 12.0005C4.75172 11.5611 4.54256 11.1479 4.18796 10.8873L2.94541 9.97291C2.68804 9.78351 2.57894 9.45184 2.67361 9.14664C3.11236 7.73221 3.86619 6.4357 4.87837 5.35468C5.09584 5.12242 5.43618 5.05265 5.72749 5.18062L7.12786 5.79579C7.53081 5.97262 7.99404 5.94591 8.37601 5.72275C8.75633 5.50215 9.00953 5.11428 9.05841 4.6777L9.22849 3.15202C9.26401 2.83341 9.49811 2.5726 9.81105 2.503C10.5283 2.34348 11.2602 2.25871 12.0124 2.25006ZM12.0126 3.74996C11.5586 3.75531 11.1058 3.79449 10.6581 3.86708L10.5491 4.84425C10.4473 5.75374 9.92028 6.56108 9.13066 7.01909C8.33622 7.48323 7.36761 7.53909 6.52483 7.16923L5.62654 6.77462C5.0546 7.46879 4.59938 8.25141 4.27877 9.09174L5.07656 9.67885C5.81537 10.2217 6.25172 11.0837 6.25172 12.0005C6.25172 12.9173 5.81537 13.7794 5.07734 14.3216L4.27829 14.9103C4.59863 15.7521 5.05392 16.5362 5.62625 17.2317L6.53138 16.8351C7.36947 16.4692 8.33149 16.5228 9.12377 16.9795C9.91606 17.4362 10.4446 18.2418 10.5482 19.1527L10.6572 20.1366C11.5468 20.2878 12.4557 20.2878 13.3453 20.1366L13.4543 19.1527C13.5551 18.2421 14.083 17.4337 14.8762 16.9753C15.6695 16.5169 16.6334 16.4631 17.473 16.8305L18.3775 17.2268C18.9493 16.5323 19.4044 15.7495 19.7249 14.909L18.927 14.3212C18.1882 13.7784 17.7518 12.9163 17.7518 11.9995C17.7518 11.0827 18.1882 10.2207 18.9261 9.67853L19.7229 9.09116C19.4023 8.25067 18.947 7.4679 18.375 6.77362L17.4785 7.16743C17.1132 7.32907 16.718 7.41226 16.3189 7.41164C14.8492 7.4101 13.6158 6.30361 13.4554 4.84389L13.3464 3.86676C12.9009 3.79426 12.4529 3.75518 12.0126 3.74996ZM11.9999 8.25001C14.071 8.25001 15.7499 9.92894 15.7499 12C15.7499 14.0711 14.071 15.75 11.9999 15.75C9.92887 15.75 8.24994 14.0711 8.24994 12C8.24994 9.92894 9.92887 8.25001 11.9999 8.25001ZM11.9999 9.75001C10.7573 9.75001 9.74994 10.7574 9.74994 12C9.74994 13.2427 10.7573 14.25 11.9999 14.25C13.2426 14.25 14.2499 13.2427 14.2499 12C14.2499 10.7574 13.2426 9.75001 11.9999 9.75001Z" fill="#424242"/>
</svg>
